<svg width="1797" height="1321" viewBox="0 0 1797 1321" fill="none" xmlns="http://www.w3.org/2000/svg">
<rect width="1440" height="1024" transform="translate(135)" fill="#00A3FF"/>
<path d="M67 562C124.6 434.8 178 334 268 451C484 532 463 249.5 616 451C769 529 775.5 304 883.5 334C991.5 364 1034.29 504.474 1165.5 370C1426.5 102.5 1552 455.167 1604 370L1796 619L1766 847L1495.5 991L709 1072.5L151 847L67 562Z" fill="#0084CE" stroke="black"/>
<path d="M125.5 772.338C211 558.338 291 521.338 419.5 646.838C548 772.338 640.5 741.838 732 646.838C823.5 551.838 887.5 474.838 970.5 576.338C1053.5 677.838 1013.5 503.338 1225 512.338C1436.5 521.338 1384.5 738.338 1485.5 772.338C1566.3 799.538 1625.17 804.338 1644.5 803.338L1709 1032.84L1467 1320.84H707.5L0 1091.34L125.5 772.338Z" fill="#0085FF"/>
</svg>
