<svg width="1451" height="719" viewBox="0 0 1451 719" fill="none" xmlns="http://www.w3.org/2000/svg">
<path d="M3 184C60.6 56.8004 50 67.0003 140 184C356 265 335 -17.4997 488 184C641 262 647.5 37.0003 755.5 67.0003C863.5 97.0003 906.294 237.474 1037.5 103C1298.5 -164.5 1395 188.167 1447 103V599.5H3V184Z" fill="#0084CE"/>
<path d="M0.5 455.5C86 241.5 163 254.338 291.5 379.838C420 505.338 512.5 474.838 604 379.838C695.5 284.838 759.5 207.838 842.5 309.338C925.5 410.838 885.5 236.338 1097 245.338C1308.5 254.338 1256.5 471.338 1357.5 505.338C1438.3 532.538 1431.67 537.5 1451 536.5V719H0.5V455.5Z" fill="#0085FF"/>
</svg>
