<svg width="391" height="196" viewBox="0 0 391 196" fill="none" xmlns="http://www.w3.org/2000/svg">
<rect x="0.605652" y="65.4094" width="347.017" height="130.131" rx="65.0657" transform="rotate(-5.12119 0.605652 65.4094)" fill="#FFADED"/>
<circle cx="287.329" cy="34" r="32.9004" fill="#FF2E00" stroke="black"/>
<ellipse cx="288.189" cy="33.7684" rx="6.18148" ry="26.1637" transform="rotate(-45.456 288.189 33.7684)" fill="black"/>
<ellipse rx="6.18148" ry="26.1637" transform="matrix(-0.701456 -0.712712 -0.712712 0.701456 288.189 33.7684)" fill="black"/>
<circle cx="357.6" cy="86.0525" r="32.9004" fill="#00FF57" stroke="black"/>
<ellipse cx="358.461" cy="85.8209" rx="6.18148" ry="26.1637" transform="rotate(-90 358.461 85.8209)" fill="black"/>
<ellipse rx="6.18148" ry="26.1637" transform="matrix(1 0 0 -1 358.461 85.8209)" fill="black"/>
<circle cx="262.17" cy="114.681" r="32.9004" fill="#00B2FF" stroke="black"/>
<ellipse cx="263.031" cy="114.45" rx="6.18148" ry="26.1637" transform="rotate(-90 263.031 114.45)" fill="black"/>
<path d="M367.944 160.661C367.944 178.832 353.214 193.562 335.043 193.562C316.873 193.562 302.143 178.832 302.143 160.661C302.143 142.491 316.873 127.761 335.043 127.761C353.214 127.761 367.944 142.491 367.944 160.661Z" fill="#FFE600" stroke="black"/>
<circle cx="335.044" cy="159.794" r="16.3873" stroke="black" stroke-width="8"/>
<path d="M88.6106 131.518C87.9698 135.446 86.3838 138.657 83.8527 141.151C81.2833 143.661 78.1728 145.03 74.5212 145.259C71.0644 145.476 68.4148 144.729 66.5723 143.018C64.729 141.294 63.6929 138.606 63.4639 134.954C63.2552 131.628 63.86 128.165 65.2782 124.567C66.6963 120.968 68.6239 118.003 71.0609 115.672C72.7719 114.038 74.6605 113.156 76.7268 113.027C77.9873 112.948 79.7312 113.295 81.9585 114.068C84.5992 114.986 85.9578 116.055 86.0345 117.277C86.0785 117.978 85.8516 118.625 85.3538 119.218C84.8552 119.797 84.2161 120.111 83.4364 120.16C83.0465 120.184 82.1595 119.875 80.7754 119.231C79.4034 118.573 78.1651 118.279 77.0605 118.348C75.8909 118.422 74.391 119.781 72.5609 122.427C69.8927 126.273 68.6927 130.334 68.9609 134.61C69.097 136.78 69.5079 138.235 70.1935 138.975C70.9206 139.751 72.2523 140.079 74.1886 139.957C76.1769 139.832 77.8893 139.157 79.3259 137.932C80.8493 136.637 81.9227 134.821 82.546 132.486C79.5457 132.909 76.9594 133.691 74.787 134.831C74.3955 135.039 73.9984 135.155 73.5955 135.18C72.7898 135.231 72.1018 134.974 71.5315 134.409C71.0173 133.907 70.739 133.318 70.6966 132.642C70.5719 130.653 72.8368 129.115 77.4914 128.028C80.1147 127.42 83.1938 127.005 86.7285 126.783C87.5082 126.734 88.1739 126.947 88.7255 127.421C89.2901 127.894 89.5956 128.502 89.642 129.242C89.7015 130.191 89.3577 130.95 88.6106 131.518ZM114.843 141.967C113.814 141.993 112.705 140.849 111.517 138.536C110.732 137.046 110.03 135.315 109.41 133.345C108.458 133.548 106.894 133.79 104.72 134.07C102.676 134.341 101.114 134.609 100.034 134.872C99.5262 136.339 98.6215 138.555 97.3201 141.52C96.807 142.492 96.0436 143.009 95.03 143.073C94.3152 143.118 93.6569 142.918 93.055 142.473C92.4522 142.015 92.1272 141.409 92.0799 140.655C92.0383 139.992 92.846 137.685 94.5029 133.732C94.2957 133.341 94.1941 132.969 94.1981 132.616C94.2109 131.989 94.8106 131.462 95.9972 131.035C97.6421 127.723 99.4875 124.28 101.534 120.708C104.473 115.579 106.32 112.991 107.074 112.943C108.503 112.854 109.513 113.658 110.102 115.356C110.449 116.73 110.989 118.791 111.723 121.536C112.75 125.229 113.987 129.451 115.433 134.2C115.546 134.558 115.932 135.395 116.588 136.711C117.126 137.799 117.413 138.623 117.448 139.182C117.495 139.935 117.248 140.583 116.708 141.126C116.181 141.668 115.56 141.948 114.843 141.967ZM106.318 122.423C105.414 124.228 104.166 126.688 102.573 129.801C103.15 129.635 104.053 129.473 105.283 129.318C106.733 129.136 107.644 129.007 108.018 128.931C107.6 127.261 107.034 125.092 106.318 122.423ZM128.987 125.033C128.534 127.175 127.915 130.404 127.129 134.719C126.974 136.203 126.825 137.68 126.682 139.15C126.265 141.029 125.342 142.013 123.913 142.103C123.016 142.159 122.289 141.898 121.73 141.32C121.256 140.828 120.996 140.224 120.952 139.51C120.82 137.404 121.107 134.81 121.814 131.726C122.868 127.106 123.431 124.547 123.504 124.046C123.756 122.021 124.014 119.996 124.278 117.97C124.69 115.179 125.205 113.307 125.824 112.355C126.455 111.389 127.29 110.873 128.33 110.808C129.512 110.734 130.42 111.277 131.054 112.438C131.645 113.536 132.349 115.814 133.166 119.272C133.95 122.628 135.031 126.226 136.406 130.067C137.646 126.114 138.758 121.791 139.742 117.098L140.552 112.546C141.138 110.644 142.164 109.647 143.633 109.555C145.049 109.466 146.17 110.479 146.994 112.593C147.334 113.445 147.741 115.051 148.215 117.408C149.316 122.897 150.562 127.581 151.954 131.46C153.362 135.403 154.077 137.55 154.099 137.901C154.148 138.667 153.882 139.33 153.304 139.888C152.762 140.391 152.133 140.666 151.418 140.711C150.002 140.799 148.886 139.852 148.07 137.868L146.682 133.219C145.912 130.919 145.026 127.602 144.023 123.268C143.548 125.046 142.751 127.842 141.633 131.657L140.689 135.317C140.297 136.764 139.869 137.958 139.407 138.9C138.794 140.152 137.87 140.817 136.635 140.894C135.414 140.971 134.433 140.308 133.693 138.906L132.374 135.349C131.151 132.086 130.023 128.647 128.987 125.033ZM174.935 112.523C174.675 112.54 174.399 112.518 174.109 112.458C171.968 112.018 169.903 111.86 167.915 111.985C166.94 112.046 165.899 112.19 164.791 112.416C163.683 112.642 162.509 112.95 161.268 113.341C161.376 115.07 161.479 117.64 161.575 121.052C162.3 120.954 164.825 120.555 169.152 119.853C171.618 119.45 173.183 119.228 173.846 119.186C174.612 119.138 175.284 119.344 175.861 119.804C176.437 120.25 176.75 120.876 176.801 121.682C176.898 123.229 176.127 124.158 174.49 124.469C173.455 124.612 171.911 124.84 169.856 125.151C168.023 125.475 165.258 125.903 161.56 126.434C161.573 128.091 161.611 129.425 161.675 130.439C161.834 132.986 162.075 134.426 162.396 134.758C162.549 134.918 163.373 134.951 164.868 134.857C165.673 134.807 166.887 134.711 168.509 134.57C170.131 134.429 171.345 134.334 172.151 134.283C172.41 134.267 172.791 134.204 173.293 134.094C173.795 133.984 174.17 133.922 174.417 133.906C175.17 133.859 175.827 134.033 176.387 134.428C177.028 134.871 177.375 135.528 177.43 136.398C177.521 137.854 176.816 138.772 175.313 139.153C174.029 139.482 171.34 139.774 167.247 140.031C163.01 140.297 160.213 139.898 158.855 138.835C157.359 137.663 156.48 134.979 156.217 130.781C156.107 129.04 156.067 126.42 156.095 122.922C156.136 119.41 156.102 116.79 155.994 115.061C155.965 114.607 155.858 113.941 155.673 113.066C155.487 112.177 155.38 111.506 155.351 111.051C155.227 109.076 156.075 108.031 157.894 107.917C158.466 107.881 159.002 108.01 159.504 108.305C160.988 107.834 162.399 107.465 163.74 107.198C165.092 106.917 166.372 106.739 167.581 106.663C170.856 106.458 173.498 106.671 175.507 107.301C176.731 107.681 177.381 108.469 177.456 109.664C177.498 110.34 177.302 110.953 176.867 111.502C176.384 112.132 175.74 112.473 174.935 112.523ZM191.04 137.795C187.739 138.002 185.094 137.431 183.105 136.081C181.43 134.96 180.542 133.6 180.442 132.002C180.391 131.183 180.595 130.492 181.056 129.928C181.515 129.351 182.18 129.036 183.051 128.981C184.221 128.908 185.116 129.452 185.737 130.613C186.578 132.165 188.304 132.859 190.916 132.695C193.151 132.555 195.284 131.932 197.316 130.826C199.423 129.689 200.439 128.523 200.364 127.328C200.262 125.69 199.518 124.654 198.134 124.219C197.149 123.903 195.205 123.803 192.303 123.919C190.052 124.008 188.011 123.712 186.181 123.031C183.709 122.103 182.43 120.631 182.342 118.614C182.222 116.078 183.428 113.674 185.96 111.401C188.491 109.116 191.362 107.873 194.572 107.671C195.845 107.591 197.436 107.785 199.344 108.253C201.716 108.835 202.932 109.6 202.991 110.548C203.033 111.224 202.837 111.837 202.402 112.386C201.919 113.003 201.268 113.338 200.449 113.389C199.838 113.427 198.914 113.355 197.676 113.171C196.451 112.987 195.527 112.915 194.903 112.954C193.228 113.072 191.661 113.575 190.203 114.462C188.694 115.365 187.97 116.292 188.029 117.24C188.06 117.734 188.32 118.129 188.808 118.424C189.308 118.706 190.037 118.882 190.994 118.953C192.663 118.939 194.325 118.926 195.981 118.914C198.88 118.954 201.212 119.623 202.976 120.921C204.919 122.365 205.977 124.464 206.15 127.219C206.36 130.572 204.609 133.232 200.897 135.2C198.069 136.696 194.783 137.56 191.04 137.795Z" fill="black"/>
</svg>
