<svg width="382" height="162" viewBox="0 0 382 162" fill="none" xmlns="http://www.w3.org/2000/svg">
<rect x="24.6057" y="32.0061" width="347.017" height="130.131" rx="65.0657" transform="rotate(-5.12119 24.6057 32.0061)" fill="#FFADED"/>
<path d="M68.8261 67.0303C74.5652 39.9719 96.8696 26.7028 108.609 26.7028C98.1739 3.93723 59.0435 -3.86809 53.1738 3.93728C54.7391 11.7426 46.4347 17.163 42.0869 18.8975C42.2418 22.9141 42.7052 26.8276 43.4062 30.6055C47.4279 52.2778 62.532 60.3836 68.8261 67.0303Z" fill="#00C2FF"/>
<path d="M42.0869 18.8975C18.6087 52.2002 17.087 96.9507 19.2609 115.163H29.6957C28.6087 99.5525 29.8291 60.7861 43.4062 30.6055C42.7052 26.8276 42.2418 22.9141 42.0869 18.8975Z" fill="#616161"/>
<path d="M29.6957 115.163H19.2609C15.3478 116.464 4.91304 119.066 1 132.075C9.26087 133.376 33.2174 136.758 55.1304 129.473C47.9565 121.668 44.0435 115.163 29.6957 115.163Z" fill="#00C2FF"/>
<path d="M68.8261 67.0303C74.5652 39.9719 96.8696 26.7028 108.609 26.7028C111.739 53.7613 83.8261 70.933 68.8261 67.0303Z" fill="white"/>
<path d="M53.1738 3.93728C54.7391 11.7426 46.4347 17.163 42.0869 18.8975C36.3477 6.92932 46.6522 0.68507 53.1738 3.93728Z" fill="white"/>
<path d="M68.8261 67.0303L68.463 67.3741L68.5615 67.4781L68.7002 67.5142L68.8261 67.0303ZM108.609 26.7028L109.105 26.6453L109.096 26.5666L109.063 26.4945L108.609 26.7028ZM43.4062 30.6055L43.8978 30.5142L43.4062 30.6055ZM55.1304 129.473L55.2882 129.947L56.0215 129.704L55.4986 129.135L55.1304 129.473ZM1 132.075L0.521192 131.931L0.356117 132.479L0.922221 132.569L1 132.075ZM69.3152 67.1341C72.1601 53.7212 79.1083 43.733 86.7941 37.0981C94.4955 30.4499 102.895 27.2028 108.609 27.2028V26.2028C102.583 26.2028 93.961 29.5902 86.1407 36.3412C78.3048 43.1055 71.2312 53.281 68.337 66.9266L69.3152 67.1341ZM108.112 26.7603C109.654 40.0896 103.556 50.9924 95.1926 58.0959C86.8039 65.221 76.2392 68.4424 68.952 66.5464L68.7002 67.5142C76.413 69.5209 87.3047 66.1077 95.84 58.8581C104.401 51.5868 110.694 40.3745 109.105 26.6453L108.112 26.7603ZM109.063 26.4945C103.761 14.9274 91.2126 7.22057 79.3331 3.38018C73.3832 1.45671 67.5628 0.489791 62.8433 0.500097C60.4842 0.505248 58.3829 0.754551 56.6711 1.26132C54.9663 1.76604 53.598 2.54133 52.7742 3.63677L53.5735 4.23779C54.2171 3.38188 55.3556 2.69367 56.955 2.22018C58.5474 1.74873 60.5476 1.50511 62.8455 1.50009C67.4399 1.49006 73.1548 2.43382 79.0255 4.3317C90.7873 8.13403 103.021 15.7127 108.154 26.9111L109.063 26.4945ZM52.6836 4.03559C53.4227 7.72116 51.8447 10.8697 49.4855 13.3493C47.1226 15.8328 44.0257 17.5857 41.9016 18.4331L42.2721 19.3619C44.4958 18.4748 47.7251 16.6503 50.21 14.0386C52.6986 11.423 54.4902 7.95873 53.6641 3.83897L52.6836 4.03559ZM42.5377 18.6813C39.7403 12.8477 40.8922 8.53543 43.3846 6.06484C45.915 3.55653 49.8922 2.85954 52.9507 4.38473L53.397 3.48983C49.9338 1.76281 45.498 2.56184 42.6806 5.35464C39.8251 8.18517 38.6943 12.9791 41.636 19.1137L42.5377 18.6813ZM41.6782 18.6094C18.1005 52.0533 16.583 96.9471 18.7644 115.222L19.7573 115.104C17.5909 96.9544 19.1169 52.3471 42.4955 19.1856L41.6782 18.6094ZM41.5872 18.9168C41.7431 22.9593 42.2095 26.8968 42.9146 30.6967L43.8978 30.5142C43.2009 26.7583 42.7404 22.869 42.5865 18.8782L41.5872 18.9168ZM42.9146 30.6967C46.9722 52.5622 62.2865 60.8516 68.463 67.3741L69.1891 66.6865C62.7775 59.9157 47.8837 51.9933 43.8978 30.5142L42.9146 30.6967ZM42.9502 30.4003C29.3252 60.6874 28.1072 99.5477 29.1969 115.198L30.1944 115.128C29.1102 99.5573 30.3329 60.8848 43.8622 30.8106L42.9502 30.4003ZM29.6957 114.663H19.2609V115.663H29.6957V114.663ZM29.6957 115.663C36.7829 115.663 41.2429 117.266 44.814 119.799C48.4252 122.36 51.1361 125.866 54.7623 129.811L55.4986 129.135C51.9508 125.275 49.1182 121.626 45.3925 118.983C41.6267 116.312 36.9563 114.663 29.6957 114.663V115.663ZM54.9727 128.998C33.1841 136.242 9.33412 132.881 1.07778 131.581L0.922221 132.569C9.18762 133.87 33.2507 137.274 55.2882 129.947L54.9727 128.998ZM1.47881 132.219C5.30997 119.482 15.4885 116.944 19.4186 115.638L19.1031 114.689C15.2072 115.984 4.51612 118.65 0.521192 131.931L1.47881 132.219ZM115.13 36.309H151V35.309H115.13V36.309ZM111.63 51.8585L146.195 70.7214L146.674 69.8436L112.109 50.9807L111.63 51.8585ZM98.4033 64.6954L120.577 99.8194L121.423 99.2856L99.2489 64.1616L98.4033 64.6954ZM75.5134 75.6009L80.7308 97.716L81.704 97.4863L76.4866 75.3713L75.5134 75.6009Z" fill="black"/>
<path d="M162.661 73.9795C159.36 74.1865 156.715 73.6153 154.725 72.2658C153.05 71.1445 152.163 69.7846 152.062 68.1862C152.011 67.3675 152.215 66.6762 152.676 66.1125C153.135 65.5357 153.801 65.22 154.671 65.1654C155.841 65.0921 156.736 65.636 157.357 66.7974C158.198 68.3494 159.924 69.0434 162.536 68.8796C164.772 68.7394 166.905 68.1164 168.936 67.0106C171.043 65.8738 172.06 64.7077 171.985 63.5121C171.882 61.8747 171.138 60.8385 169.754 60.4034C168.769 60.0868 166.825 59.987 163.923 60.1037C161.672 60.1927 159.631 59.8967 157.801 59.2157C155.329 58.2878 154.05 56.8155 153.962 54.7988C153.843 52.2623 155.049 49.8579 157.581 47.5856C160.112 45.3003 162.982 44.0569 166.192 43.8556C167.466 43.7758 169.056 43.9696 170.964 44.437C173.336 45.0188 174.552 45.7841 174.611 46.7327C174.654 47.4085 174.457 48.021 174.022 48.5701C173.539 49.1875 172.888 49.5219 172.069 49.5732C171.459 49.6115 170.534 49.539 169.296 49.3557C168.072 49.1716 167.147 49.0991 166.523 49.1382C164.848 49.2564 163.281 49.7591 161.823 50.6463C160.315 51.5498 159.59 52.4759 159.649 53.4246C159.68 53.9184 159.94 54.3131 160.428 54.6086C160.928 54.8903 161.657 55.0664 162.614 55.1369C164.283 55.1235 165.946 55.1106 167.602 55.0981C170.501 55.138 172.832 55.8072 174.597 57.1056C176.54 58.5493 177.598 60.6486 177.77 63.4036C177.981 66.7564 176.23 69.4168 172.517 71.3848C169.689 72.8799 166.403 73.7448 162.661 73.9795ZM202.933 46.7961C201.919 46.8597 200.336 46.8873 198.182 46.8788C196.107 46.8654 194.524 46.8995 193.433 46.9809C193.578 48.4591 193.919 51.0862 194.456 54.8621C194.939 58.1977 195.242 60.8402 195.364 62.7895C195.392 63.2313 195.478 63.8848 195.624 64.7497C195.77 65.6147 195.856 66.2681 195.884 66.71C195.945 67.6846 195.792 68.5748 195.425 69.3806C194.955 70.4147 194.226 70.9627 193.239 71.0246C192.524 71.0695 191.879 70.8816 191.305 70.461C190.662 69.9924 190.317 69.3748 190.269 68.6081C190.258 68.4262 190.273 68.1512 190.315 67.7833C190.357 67.4023 190.371 67.1144 190.359 66.9195C190.321 66.3217 190.219 65.4214 190.053 64.2185C189.899 63.0148 189.803 62.1076 189.764 61.4968C189.655 59.7555 189.371 57.4054 188.911 54.4466C188.385 51.0484 188.055 48.7011 187.922 47.4049L186.908 47.4684C184.01 47.6502 181.697 47.5865 179.968 47.2774C178.504 47.017 177.729 46.211 177.645 44.8595C177.603 44.1968 177.799 43.5843 178.234 43.0222C178.74 42.3512 179.437 42.0205 180.324 42.03C180.781 42.0275 181.821 42.0731 183.444 42.167C184.74 42.2293 185.784 42.2356 186.577 42.1858C187.37 42.1361 188.551 42.049 190.122 41.9244C191.706 41.7989 192.894 41.7114 193.687 41.6617C194.674 41.5997 196.16 41.5783 198.145 41.5974C200.128 41.6034 201.614 41.5755 202.601 41.5136C203.381 41.4647 204.047 41.6773 204.598 42.1515C205.163 42.6249 205.468 43.232 205.515 43.9727C205.561 44.7135 205.334 45.3604 204.834 45.9137C204.346 46.4531 203.712 46.7472 202.933 46.7961ZM229.216 65.2262C228.348 66.5723 227.271 67.7161 225.987 68.6577C224.415 69.8 222.764 70.4254 221.036 70.5338C217.722 70.7416 215.22 70.2593 213.528 69.0868C209.955 66.6103 207.959 62.0453 207.542 55.3917C207.502 54.7549 207.475 53.8042 207.461 52.5396C207.447 51.275 207.42 50.3243 207.38 49.6875C207.348 49.1807 207.314 48.4261 207.277 47.4239C207.24 46.4086 207.205 45.6476 207.173 45.1408C207.108 44.1011 207.235 43.1082 207.554 42.1619C207.984 40.9085 208.654 40.2533 209.564 40.1963C210.278 40.1514 210.923 40.3458 211.499 40.7794C212.127 41.2358 212.466 41.8538 212.515 42.6335C212.562 43.3742 212.619 44.4992 212.688 46.0082C212.768 47.5035 212.832 48.628 212.88 49.3817C212.919 50.0055 212.945 50.9497 212.959 52.2143C212.973 53.479 213 54.4232 213.039 55.0469C213.165 57.0612 213.517 58.9179 214.093 60.6169C214.768 62.6489 215.658 64.0413 216.762 64.794C217.335 65.1886 218.648 65.3345 220.703 65.2317C224.137 65.0685 226.267 61.9995 227.093 56.0247C227.525 52.9317 227.568 48.6237 227.222 43.1006C227.176 42.3729 227.346 41.6577 227.733 40.9551C228.261 40.0217 229.065 39.5212 230.144 39.4536C231.027 39.3982 231.71 39.6815 232.193 40.3035C232.561 40.7632 232.763 41.2854 232.8 41.8702C233.122 47.0033 233.133 51.0209 232.832 53.9231C232.382 58.4001 231.177 62.1678 229.216 65.2262ZM241.876 68.0135C241.108 68.0486 240.449 67.829 239.897 67.3548C239.345 66.8676 239.046 66.2601 239 65.5324C238.919 64.2329 238.855 62.2799 238.809 59.6735C238.776 57.0663 238.719 55.1129 238.637 53.8134C238.547 52.3709 238.378 50.2092 238.133 47.3283C237.9 44.4466 237.738 42.2846 237.648 40.8421C237.603 40.1273 237.903 39.3975 238.547 38.6526C239.191 37.8946 239.903 37.4912 240.683 37.4423C241.112 37.4154 242.216 37.7506 243.994 38.4479C246.069 39.2833 247.298 39.7476 247.683 39.8409C251.568 40.8367 254.936 42.5432 257.789 44.9606C261.192 47.8392 263.01 51.1433 263.244 54.8729C263.385 57.1211 262.967 59.2935 261.989 61.39C261.014 63.5256 259.604 65.2774 257.759 66.6456C255.69 68.1844 252.699 69.0764 248.788 69.3217C247.839 69.3812 246.739 69.3132 245.487 69.1178C243.972 68.8736 242.768 68.5055 241.876 68.0135ZM251.574 47.2877C250.264 46.574 247.483 45.496 243.231 44.0536L244.441 63.3516C244.968 63.6447 245.562 63.8554 246.222 63.9836C246.895 64.0979 247.634 64.1299 248.44 64.0793C251.247 63.9033 253.236 63.3871 254.409 62.5308C255.519 61.7175 256.372 60.6529 256.968 59.337C257.577 58.0203 257.838 56.6732 257.752 55.2957C257.55 52.0728 255.491 49.4035 251.574 47.2877ZM287.197 40.8266C286.62 42.2327 285.473 45.2662 283.756 49.927C282.33 53.826 281.101 56.8907 280.066 59.1213C278.274 62.9911 277.313 65.0409 277.184 65.2708C276.488 66.4495 275.64 67.0702 274.639 67.133C273.924 67.1778 273.279 66.9834 272.704 66.5498C272.074 66.0675 271.735 65.443 271.687 64.6762C271.647 64.0395 272.837 61.2773 275.257 56.3896C274.166 55.0099 272.592 52.9103 270.537 50.0907C268.998 48.0215 266.734 44.8953 263.745 40.7122C263.458 40.2867 263.299 39.8335 263.269 39.3527C263.221 38.599 263.474 37.9439 264.026 37.3874C264.542 36.8723 265.163 36.592 265.891 36.5463C266.749 36.4925 267.556 36.879 268.312 37.7057L269.921 39.9531C270.022 40.1034 271.258 41.9306 273.631 45.4348C275.128 47.6762 276.439 49.4401 277.563 50.7264C278.426 48.6761 279.66 45.5785 281.266 41.4334C281.6 40.5123 282.099 39.1176 282.765 37.2493C283.185 36.0488 283.994 35.411 285.189 35.3361C285.904 35.2912 286.549 35.4856 287.124 35.9192C287.753 36.3886 288.092 37.0066 288.14 37.7733C288.168 38.2151 287.854 39.2329 287.197 40.8266ZM190.918 126.38C189.427 127.152 187.093 127.905 183.916 128.639C181.01 129.317 178.615 129.715 176.731 129.833C173.547 130.033 171.868 128.736 171.692 125.942C171.706 126.163 171.707 124.095 171.695 119.738C171.679 114.077 171.454 107.79 171.021 100.876C170.974 100.135 171.188 99.4893 171.662 98.9377C172.149 98.3853 172.783 98.0846 173.563 98.0357C174.342 97.9868 175.008 98.206 175.561 98.6932C176.113 99.1804 176.413 99.7944 176.459 100.535C176.894 107.462 177.118 113.853 177.133 119.71C177.082 120.757 177.058 122.357 177.062 124.509C180.139 124.264 184.042 123.263 188.772 121.505C189.066 121.395 189.349 121.332 189.621 121.314C190.44 121.263 191.122 121.52 191.666 122.086C192.154 122.591 192.419 123.174 192.461 123.837C192.531 124.955 192.016 125.802 190.918 126.38ZM217.043 126.072C216.014 126.098 214.905 124.954 213.717 122.641C212.932 121.151 212.23 119.42 211.61 117.45C210.658 117.653 209.094 117.895 206.92 118.175C204.876 118.447 203.314 118.714 202.234 118.977C201.726 120.444 200.821 122.66 199.52 125.625C199.007 126.597 198.244 127.114 197.23 127.178C196.515 127.223 195.857 127.023 195.255 126.578C194.652 126.12 194.327 125.514 194.28 124.76C194.238 124.097 195.046 121.79 196.703 117.837C196.496 117.446 196.394 117.074 196.398 116.721C196.411 116.094 197.011 115.567 198.197 115.141C199.842 111.828 201.687 108.385 203.733 104.813C206.673 99.6839 208.52 97.0958 209.274 97.0485C210.703 96.9589 211.713 97.7632 212.302 99.4614C212.649 100.836 213.189 102.896 213.923 105.642C214.95 109.335 216.187 113.556 217.633 118.305C217.746 118.663 218.132 119.5 218.788 120.816C219.326 121.904 219.612 122.728 219.648 123.287C219.695 124.04 219.448 124.689 218.908 125.231C218.381 125.773 217.76 126.053 217.043 126.072ZM208.518 106.528C207.614 108.333 206.366 110.793 204.773 113.906C205.35 113.74 206.253 113.579 207.483 113.423C208.933 113.241 209.844 113.112 210.218 113.036C209.8 111.367 209.234 109.197 208.518 106.528ZM231.187 109.138C230.734 111.28 230.115 114.509 229.329 118.824C229.174 120.308 229.025 121.785 228.882 123.255C228.465 125.134 227.542 126.118 226.113 126.208C225.216 126.264 224.489 126.003 223.93 125.425C223.456 124.933 223.196 124.33 223.152 123.615C223.019 121.51 223.307 118.915 224.014 115.831C225.068 111.211 225.631 108.652 225.704 108.151C225.956 106.126 226.213 104.101 226.478 102.075C226.89 99.2837 227.405 97.4118 228.024 96.4597C228.655 95.4939 229.49 94.9783 230.53 94.9132C231.712 94.839 232.62 95.3822 233.254 96.5427C233.845 97.6407 234.549 99.9188 235.366 103.377C236.15 106.733 237.23 110.331 238.606 114.172C239.846 110.219 240.958 105.897 241.942 101.203L242.752 96.6515C243.337 94.7492 244.364 93.752 245.833 93.6599C247.249 93.571 248.37 94.5836 249.194 96.6977C249.534 97.5504 249.941 99.1557 250.415 101.513C251.516 107.002 252.762 111.686 254.154 115.565C255.562 119.508 256.277 121.655 256.299 122.006C256.347 122.772 256.082 123.435 255.504 123.993C254.962 124.497 254.333 124.771 253.618 124.816C252.202 124.905 251.086 123.957 250.27 121.973L248.882 117.324C248.112 115.024 247.226 111.707 246.223 107.373C245.748 109.151 244.951 111.948 243.833 115.762L242.889 119.422C242.497 120.869 242.069 122.063 241.607 123.005C240.994 124.257 240.07 124.922 238.835 124.999C237.614 125.076 236.633 124.413 235.893 123.011L234.574 119.454C233.351 116.191 232.222 112.752 231.187 109.138ZM264.453 111.592C264.232 111.606 263.683 111.595 262.807 111.558C262.843 113.383 262.991 116.374 263.252 120.532C263.295 121.221 263.092 121.828 262.642 122.352C262.192 122.875 261.597 123.161 260.856 123.207C260.115 123.254 259.483 123.045 258.958 122.583C258.446 122.119 258.169 121.543 258.125 120.854L257.784 115.415C257.658 113.401 257.601 110.411 257.613 106.444C257.608 102.413 257.55 99.4091 257.439 97.433C257.24 94.0534 258.088 92.376 259.981 92.4008C260.415 92.2561 261.021 92.1333 261.797 92.0324C262.573 91.9186 263.52 91.8266 264.637 91.7565C267.184 91.5968 269.627 92.272 271.966 93.7822C274.564 95.4719 275.946 97.6422 276.112 100.293C276.321 103.62 275.168 106.347 272.653 108.475C270.422 110.35 267.688 111.389 264.453 111.592ZM264.504 96.8138C264.088 96.8399 263.718 96.8696 263.394 96.903C263.083 96.9225 262.817 96.9522 262.598 96.9921C262.636 97.6029 262.687 98.5194 262.751 99.7418C262.815 101.186 262.833 103.442 262.803 106.51C263.472 106.572 263.918 106.596 264.138 106.582C266.166 106.455 267.818 105.869 269.097 104.823C270.462 103.707 271.091 102.304 270.985 100.615C270.916 99.5102 270.185 98.571 268.793 97.7973C267.454 97.0463 266.025 96.7184 264.504 96.8138Z" fill="black"/>
</svg>
