<svg width="412" height="188" viewBox="0 0 412 188" fill="none" xmlns="http://www.w3.org/2000/svg">
<rect x="37.5955" y="56.9473" width="347.017" height="130.131" rx="65.0657" transform="rotate(-5.12119 37.5955 56.9473)" fill="#FFADED"/>
<path d="M150.892 30.5639C146.302 10.1711 125.321 -10.2217 77.4565 8.19759C69.3129 12.6177 48.3663 31.5192 37.6299 55.3068C44.16 50.8205 50.9673 47.5342 57.5093 45.7325C65.3368 34.5494 87.9421 12.1831 115.743 12.1831C121.425 11.5253 134.757 15.0776 142.625 34.5494L138.035 37.8386C140.44 39.5928 146.821 43.3566 153.116 44.3783C154.427 40.6635 156.788 32.3128 155.739 28.6289L150.892 30.5639Z" fill="#FFE600"/>
<path d="M99.7493 114.766C112.863 100.952 114.83 49.641 72.2111 44.3783C67.6521 43.8154 62.6631 44.3132 57.5093 45.7325C50.9673 47.5342 44.16 50.8205 37.6299 55.3068C11.8535 73.0155 -9.60216 109.42 6.6439 147C10.5214 147 14.9877 144.394 16.7361 143.092C9.91714 119.936 16.0805 100.552 20.0145 93.7542C22.1126 89.0178 28.301 80.159 31.1609 77.3084C37.6299 69.4145 43.5414 65.814 49.5197 62.5199C60.7433 56.3356 70.4132 57.0012 72.2111 57.5735C86.0548 58.626 92.1384 71.6072 93.4497 77.9663C94.4988 101.122 88.6415 107.349 85.5817 107.569C64.6002 115.463 51.4867 102.525 47.5527 95.0699C42.8319 78.7557 46.897 66.5723 49.5197 62.5199C43.5414 65.814 37.6299 69.4145 31.1609 77.3084C30.5678 85.5468 31.8033 95.9426 35.4935 104.241C40.9867 116.594 77.4565 138.251 99.7493 114.766Z" fill="#FFE600"/>
<path d="M6.6439 147L6.18495 147.198L6.31533 147.5H6.6439V147ZM72.2111 44.3783L72.2724 43.8821L72.2111 44.3783ZM99.7493 114.766L99.3867 114.422L99.7493 114.766ZM35.4935 104.241L35.0367 104.444L35.4935 104.241ZM77.4565 8.19759L77.277 7.73095L77.2466 7.74263L77.218 7.75815L77.4565 8.19759ZM150.892 30.5639L150.404 30.6737L150.533 31.2456L151.077 31.0282L150.892 30.5639ZM16.7361 143.092L17.0349 143.493L17.3141 143.284L17.2158 142.95L16.7361 143.092ZM20.0145 93.7542L20.4472 94.0047L20.4607 93.9814L20.4716 93.9567L20.0145 93.7542ZM155.739 28.6289L156.219 28.492L156.068 27.9591L155.553 28.1646L155.739 28.6289ZM153.116 44.3783L153.036 44.8719L153.448 44.9388L153.587 44.5448L153.116 44.3783ZM138.035 37.8386L137.744 37.4321L137.182 37.8349L137.741 38.2425L138.035 37.8386ZM142.625 34.5494L142.916 34.9558L143.236 34.7267L143.089 34.3621L142.625 34.5494ZM115.743 12.1831V12.6831H115.771L115.8 12.6798L115.743 12.1831ZM57.5093 45.7325L57.642 46.2146L57.5093 45.7325ZM72.2111 57.5735L72.0594 58.0499L72.115 58.0676L72.1732 58.0721L72.2111 57.5735ZM93.4497 77.9663L93.9492 77.9436L93.9474 77.9041L93.9394 77.8653L93.4497 77.9663ZM85.5817 107.569L85.5459 107.07L85.4735 107.075L85.4056 107.101L85.5817 107.569ZM47.5527 95.0699L47.0724 95.2089L47.0866 95.258L47.1105 95.3032L47.5527 95.0699ZM72.1498 44.8746C82.6992 46.1772 90.4599 50.3233 95.9792 56.0024C101.504 61.6869 104.807 68.9335 106.39 76.4682C107.974 84.0037 107.832 91.8087 106.482 98.5824C105.129 105.368 102.576 111.063 99.3867 114.422L100.112 115.11C103.48 111.563 106.09 105.663 107.462 98.7779C108.837 91.8811 108.982 83.9393 107.369 76.2625C105.756 68.5849 102.38 61.1536 96.6964 55.3055C91.0077 49.4521 83.0323 45.2108 72.2724 43.8821L72.1498 44.8746ZM99.3867 114.422C88.4175 125.978 73.9539 126.454 61.4737 122.466C55.2345 120.473 49.5137 117.368 45.0158 113.999C40.5053 110.621 37.2735 107.013 35.9504 104.038L35.0367 104.444C36.4602 107.645 39.8471 111.377 44.4163 114.8C48.9981 118.232 54.8179 121.39 61.1694 123.419C73.8706 127.477 88.7883 127.039 100.112 115.11L99.3867 114.422ZM77.6361 8.66423C101.494 -0.51699 118.558 0.0111106 130.196 5.28168C141.828 10.5497 148.137 20.5991 150.404 30.6737L151.38 30.4541C149.057 20.1358 142.58 9.79245 130.608 4.37074C118.642 -1.04846 101.283 -1.50711 77.277 7.73095L77.6361 8.66423ZM6.6439 147.5C8.68337 147.5 10.8437 146.818 12.6926 145.991C14.5471 145.161 16.1324 144.165 17.0349 143.493L16.4374 142.691C15.5914 143.321 14.0693 144.279 12.2842 145.078C10.4935 145.879 8.48192 146.5 6.6439 146.5V147.5ZM17.2158 142.95C10.439 119.938 16.5754 100.695 20.4472 94.0047L19.5817 93.5038C15.5855 100.409 9.39529 119.934 16.2565 143.233L17.2158 142.95ZM35.9504 104.038C32.3003 95.8295 31.0711 85.519 31.6596 77.3444L30.6622 77.2725C30.0645 85.5747 31.3064 96.0557 35.0367 104.444L35.9504 104.038ZM20.4716 93.9567C21.5016 91.6316 23.5521 88.2633 25.7145 85.1067C27.8784 81.948 30.1188 79.0531 31.5139 77.6626L30.8079 76.9543C29.3431 78.4144 27.0593 81.3742 24.8895 84.5416C22.7182 87.7112 20.6255 91.1404 19.5573 93.5517L20.4716 93.9567ZM151.077 31.0282L155.924 29.0933L155.553 28.1646L150.706 30.0995L151.077 31.0282ZM155.258 28.7659C155.496 29.6044 155.55 30.7493 155.457 32.0869C155.365 33.416 155.131 34.8977 154.823 36.3908C154.205 39.377 153.294 42.3714 152.644 44.2119L153.587 44.5448C154.249 42.6704 155.174 39.632 155.802 36.5932C156.116 35.0738 156.358 33.5449 156.455 32.1561C156.55 30.7758 156.505 29.4954 156.219 28.492L155.258 28.7659ZM153.196 43.8848C147.01 42.8808 140.703 39.1658 138.33 37.4347L137.741 38.2425C140.176 40.0198 146.632 43.8325 153.036 44.8719L153.196 43.8848ZM138.327 38.245L142.916 34.9558L142.334 34.143L137.744 37.4321L138.327 38.245ZM143.089 34.3621C135.148 14.7109 121.621 10.9993 115.685 11.6865L115.8 12.6798C121.229 12.0513 134.366 15.4443 142.162 34.7367L143.089 34.3621ZM57.642 46.2146C62.7471 44.8087 67.6691 44.3213 72.1498 44.8746L72.2724 43.8821C67.6351 43.3095 62.5791 43.8177 57.3765 45.2505L57.642 46.2146ZM115.743 11.6831C101.708 11.6831 89.0083 17.3277 78.8517 24.3529C68.6954 31.378 61.0455 39.8084 57.0996 45.4458L57.9189 46.0193C61.8006 40.4736 69.3671 32.1292 79.4205 25.1754C89.4736 18.2217 101.977 12.6831 115.743 12.6831V11.6831ZM72.1732 58.0721C78.9292 58.5857 83.7937 62.0053 87.1432 66.0967C90.5003 70.1974 92.3183 74.9554 92.96 78.0673L93.9394 77.8653C93.2698 74.6181 91.3904 69.706 87.9169 65.4632C84.4358 61.2111 79.3367 57.6138 72.249 57.0749L72.1732 58.0721ZM92.9503 77.9889C93.4732 89.531 92.2711 96.8002 90.5896 101.19C88.8948 105.614 86.7759 106.982 85.5459 107.07L85.6174 108.067C87.4472 107.936 89.787 106.081 91.5235 101.547C93.2733 96.9796 94.4754 89.5572 93.9492 77.9436L92.9503 77.9889ZM85.4056 107.101C75.0454 110.999 66.6661 109.746 60.3971 106.628C54.1093 103.5 49.9192 98.4833 47.9949 94.8366L47.1105 95.3032C49.1202 99.1119 53.4538 104.291 59.9517 107.523C66.4683 110.764 75.1365 112.033 85.7578 108.037L85.4056 107.101ZM31.5476 77.6254C37.959 69.8017 43.8081 66.2378 49.761 62.9578L49.2784 62.0819C43.2746 65.3901 37.3008 69.0272 30.7742 76.9915L31.5476 77.6254ZM49.761 62.9578C55.3126 59.8988 60.4753 58.5365 64.4656 58.0087C66.4611 57.7447 68.1614 57.6897 69.4681 57.735C70.7874 57.7807 71.6751 57.9276 72.0594 58.0499L72.3627 57.0971C71.8481 56.9333 70.8529 56.7824 69.5027 56.7356C68.1399 56.6884 66.3842 56.7462 64.3345 57.0173C60.2346 57.5596 54.9505 58.9566 49.2784 62.0819L49.761 62.9578ZM48.033 94.9309C43.3499 78.7471 47.4004 66.7148 49.9395 62.7915L49.1 62.2482C46.3937 66.4297 42.3138 78.7643 47.0724 95.2089L48.033 94.9309ZM7.10285 146.802C-9.01382 109.521 12.2517 73.3486 37.913 55.7189L37.3468 54.8946C11.4552 72.6825 -10.1905 109.319 6.18495 147.198L7.10285 146.802ZM37.913 55.7189C44.4052 51.2587 51.1623 47.9991 57.642 46.2146L57.3765 45.2505C50.7723 47.0692 43.9148 50.3824 37.3468 54.8946L37.913 55.7189ZM38.0856 55.5125C43.426 43.6805 51.3117 33.0522 58.8834 24.828C66.4627 16.5955 73.692 10.8097 77.6951 8.63704L77.218 7.75815C73.0774 10.0055 65.7617 15.8805 58.1477 24.1507C50.526 32.4292 42.5703 43.1455 37.1742 55.1011L38.0856 55.5125Z" fill="black"/>
<path d="M330.002 106.008L410.639 91.905V162.419L406.744 166.699L404.39 162.419V112.472L330.002 127.162V106.008Z" fill="#FF7816"/>
<path d="M330.002 121.121H337.014V172.542H330.002V121.121Z" fill="#FF7816"/>
<path d="M337.014 173.127C337.014 180.549 330.997 186.566 323.574 186.566C316.152 186.566 310.135 180.549 310.135 173.127C310.135 165.704 316.152 159.687 323.574 159.687C330.997 159.687 337.014 165.704 337.014 173.127Z" fill="#FF7816"/>
<path d="M410.639 163.777C410.639 171.2 404.622 177.217 397.199 177.217C389.777 177.217 383.76 171.2 383.76 163.777C383.76 156.355 389.777 150.338 397.199 150.338C404.622 150.338 410.639 156.355 410.639 163.777Z" fill="#FF7816"/>
<path d="M410.639 91.905L330.002 105.929V161.44C328.444 159.882 324.158 157.934 317.731 160.856C315.978 160.856 308.966 164.946 310.135 175.464C310.524 178.97 313.757 186.099 323.574 186.566C327.47 186.371 335.611 183.644 337.014 174.295V125.796L404.211 112.356V152.675C402.069 150.922 395.446 149.169 391.356 152.091C388.824 153.065 383.292 156.999 383.76 164.946C384.929 170.01 388.435 178.385 399.537 177.217C403.718 176.777 410.055 173.711 410.639 164.362V91.905Z" stroke="black"/>
<path d="M155.67 86.9711C155.218 89.113 154.598 92.3417 153.812 96.6572C153.657 98.1411 153.509 99.6182 153.366 101.088C152.949 102.967 152.026 103.951 150.596 104.041C149.699 104.097 148.972 103.836 148.414 103.258C147.939 102.766 147.68 102.162 147.635 101.448C147.503 99.3425 147.79 96.7478 148.497 93.6637C149.551 89.0444 150.115 86.4845 150.188 85.9842C150.439 83.9593 150.697 81.934 150.961 79.9082C151.373 77.1166 151.889 75.2447 152.507 74.2926C153.138 73.3268 153.974 72.8113 155.013 72.7461C156.196 72.6719 157.104 73.2151 157.738 74.3756C158.328 75.4736 159.032 77.7517 159.849 81.2099C160.634 84.5659 161.714 88.1642 163.09 92.0048C164.329 88.0523 165.441 83.7295 166.425 79.0363L167.236 74.4844C167.821 72.5821 168.848 71.5849 170.316 71.4928C171.733 71.4039 172.853 72.4165 173.677 74.5306C174.018 75.3833 174.425 76.9886 174.899 79.3463C176 84.8351 177.246 89.5189 178.637 93.3977C180.046 97.3407 180.761 99.4877 180.783 99.8386C180.831 100.605 180.566 101.268 179.988 101.826C179.445 102.33 178.817 102.604 178.102 102.649C176.685 102.737 175.569 101.79 174.753 99.8057L173.366 95.1569C172.595 92.8569 171.709 89.54 170.707 85.2062C170.231 86.9842 169.434 89.7804 168.317 93.5949L167.372 97.2549C166.98 98.7016 166.553 99.896 166.09 100.838C165.477 102.09 164.553 102.755 163.319 102.832C162.097 102.909 161.116 102.246 160.376 100.844L159.057 97.2871C157.835 94.0239 156.706 90.5852 155.67 86.9711ZM203.851 96.0239C202.983 97.37 201.907 98.5138 200.622 99.4554C199.05 100.598 197.4 101.223 195.671 101.331C192.357 101.539 189.855 101.057 188.164 99.8845C184.59 97.408 182.595 92.8429 182.177 86.1893C182.137 85.5526 182.11 84.6019 182.096 83.3373C182.082 82.0726 182.055 81.122 182.015 80.4852C181.984 79.9784 181.949 79.2238 181.913 78.2216C181.875 77.2063 181.84 76.4453 181.808 75.9384C181.743 74.8988 181.87 73.9058 182.189 72.9595C182.619 71.7062 183.289 71.051 184.199 70.994C184.914 70.9491 185.559 71.1435 186.134 71.5771C186.763 72.0335 187.101 72.6515 187.15 73.4312C187.197 74.1719 187.254 75.2968 187.323 76.8059C187.404 78.3012 187.468 79.4257 187.515 80.1794C187.554 80.8032 187.581 81.7474 187.595 83.012C187.609 84.2766 187.635 85.2208 187.674 85.8446C187.801 87.8589 188.152 89.7155 188.728 91.4146C189.404 93.4466 190.293 94.8389 191.397 95.5916C191.97 95.9863 193.284 96.1322 195.339 96.0294C198.773 95.8662 200.902 92.7972 201.728 86.8224C202.16 83.7293 202.203 79.4213 201.857 73.8983C201.811 73.1706 201.982 72.4554 202.368 71.7527C202.897 70.8194 203.7 70.3189 204.779 70.2513C205.662 70.1958 206.346 70.4792 206.828 71.1012C207.196 71.5608 207.399 72.0831 207.435 72.6678C207.757 77.801 207.768 81.8186 207.467 84.7207C207.017 89.1978 205.812 92.9655 203.851 96.0239ZM222.207 99.452C218.906 99.659 216.261 99.0878 214.272 97.7383C212.597 96.617 211.709 95.2571 211.609 93.6587C211.558 92.84 211.762 92.1488 212.222 91.585C212.682 91.0082 213.347 90.6925 214.218 90.6379C215.387 90.5646 216.283 91.1086 216.903 92.2699C217.744 93.8219 219.471 94.516 222.083 94.3521C224.318 94.212 226.451 93.5889 228.482 92.4831C230.59 91.3463 231.606 90.1802 231.531 88.9846C231.428 87.3472 230.685 86.311 229.301 85.8759C228.316 85.5594 226.372 85.4595 223.47 85.5762C221.219 85.6653 219.178 85.3692 217.348 84.6882C214.876 83.7603 213.596 82.2881 213.509 80.2713C213.389 77.7348 214.595 75.3304 217.127 73.0581C219.658 70.7728 222.529 69.5295 225.739 69.3282C227.012 69.2483 228.603 69.4421 230.511 69.9095C232.883 70.4914 234.098 71.2566 234.158 72.2053C234.2 72.881 234.004 73.4935 233.569 74.0426C233.086 74.66 232.435 74.9944 231.616 75.0457C231.005 75.084 230.081 75.0115 228.843 74.8282C227.618 74.6441 226.694 74.5716 226.07 74.6108C224.394 74.7289 222.828 75.2316 221.37 76.1188C219.861 77.0223 219.136 77.9484 219.196 78.8971C219.227 79.3909 219.486 79.7856 219.975 80.0811C220.475 80.3629 221.204 80.5389 222.16 80.6094C223.83 80.5961 225.492 80.5831 227.148 80.5706C230.047 80.6106 232.379 81.2797 234.143 82.5781C236.086 84.0218 237.144 86.1212 237.317 88.8762C237.527 92.229 235.776 94.8893 232.064 96.8573C229.235 98.3524 225.95 99.2173 222.207 99.452ZM255.892 73.0145C255.216 73.0568 253.353 72.9911 250.302 72.8171C250.27 75.2196 250.378 78.4027 250.627 82.3662L251.156 91.1198C252.882 90.9724 254.642 90.8425 256.435 90.73C257.215 90.6811 257.875 90.9007 258.414 91.3887C258.966 91.8759 259.265 92.4834 259.311 93.2111C259.357 93.9389 259.136 94.579 258.649 95.1314C258.174 95.67 257.546 95.9637 256.767 96.0126C256.039 96.0583 254.949 96.1462 253.495 96.2765C252.042 96.3937 250.951 96.4752 250.223 96.5208C249.365 96.5746 248.086 96.7658 246.384 97.0943C244.684 97.4358 243.404 97.6334 242.547 97.6872C241.767 97.7361 241.101 97.5234 240.55 97.0492C240.01 96.5612 239.718 95.9533 239.672 95.2256C239.626 94.4978 239.841 93.8582 240.315 93.3066C240.802 92.7542 241.436 92.4535 242.215 92.4046C243.099 92.3492 244.256 92.1788 245.686 91.8934C245.564 90.3616 245.367 87.4255 245.095 83.085C244.873 79.5503 244.792 76.1699 244.85 72.9437L240.627 73.326C239.848 73.3749 239.176 73.1626 238.611 72.6892C238.059 72.215 237.76 71.601 237.713 70.8473C237.665 70.0806 237.885 69.4405 238.375 68.9271C238.828 68.4551 239.404 68.1646 240.101 68.0556C241.238 67.8799 243.223 67.7032 246.056 67.5256C248.603 67.3658 251.902 67.433 255.952 67.7269C257.564 67.8476 258.419 68.6942 258.518 70.2666C258.57 71.0983 258.286 71.7749 257.667 72.2965C257.159 72.7328 256.568 72.9721 255.892 73.0145ZM280.732 73.7463C279.563 73.8196 278.66 73.2565 278.024 72.057C277.727 71.4885 277.445 71.1539 277.178 71.0533C276.977 70.9745 276.461 70.9613 275.629 71.0134C273.992 71.1161 272.181 72.5082 270.197 75.1898C267.418 78.9388 266.126 82.3662 266.321 85.4721C266.41 86.8885 266.96 88.0739 267.973 89.028C268.985 89.9821 270.154 90.4176 271.479 90.3345C272.766 90.2538 274.051 89.834 275.334 89.0752C275.786 88.7989 276.734 88.1002 278.177 86.979C279.148 86.2397 279.894 85.8537 280.413 85.8211C281.193 85.7722 281.874 86.0166 282.455 86.5541C282.996 87.0552 283.287 87.6501 283.331 88.3388C283.379 89.1055 283.083 89.796 282.443 90.4101C279.058 93.6492 275.514 95.3848 271.81 95.6171C268.886 95.8005 266.351 94.8897 264.203 92.8848C262.151 90.9522 261.037 88.5954 260.863 85.8144C260.59 81.4609 262.215 76.8971 265.738 72.123C268.733 68.0734 271.919 65.9427 275.298 65.7308C275.87 65.695 276.385 65.6823 276.842 65.6927C277.312 65.7024 277.725 65.7352 278.081 65.7911C278.618 65.1965 279.289 64.8739 280.095 64.8234C281.42 64.7402 282.286 65.4491 282.694 66.95C282.983 68.0278 283.173 69.2944 283.265 70.7498C283.305 71.3996 283.154 72.0027 282.811 72.5592C282.361 73.2919 281.668 73.6876 280.732 73.7463ZM152.461 147.823C152.24 147.836 151.692 147.825 150.815 147.789C150.851 149.613 151 152.604 151.261 156.763C151.304 157.452 151.1 158.058 150.651 158.582C150.201 159.106 149.605 159.391 148.865 159.438C148.124 159.484 147.491 159.276 146.966 158.813C146.455 158.349 146.177 157.773 146.134 157.084L145.793 151.646C145.667 149.632 145.609 146.641 145.622 142.674C145.617 138.643 145.559 135.64 145.448 133.663C145.249 130.284 146.096 128.606 147.99 128.631C148.424 128.487 149.029 128.364 149.806 128.263C150.582 128.149 151.528 128.057 152.646 127.987C155.193 127.827 157.636 128.502 159.974 130.013C162.572 131.702 163.954 133.873 164.121 136.524C164.329 139.851 163.176 142.578 160.661 144.706C158.43 146.581 155.697 147.62 152.461 147.823ZM152.513 133.044C152.097 133.07 151.727 133.1 151.403 133.133C151.091 133.153 150.826 133.183 150.606 133.222C150.645 133.833 150.696 134.75 150.759 135.972C150.824 137.416 150.841 139.672 150.812 142.74C151.481 142.802 151.926 142.827 152.147 142.813C154.174 142.686 155.827 142.099 157.105 141.054C158.47 139.937 159.1 138.535 158.994 136.845C158.925 135.741 158.194 134.801 156.802 134.028C155.463 133.277 154.033 132.949 152.513 133.044ZM186.644 155.855C185.153 156.627 182.819 157.38 179.643 158.114C176.737 158.792 174.342 159.19 172.458 159.308C169.274 159.508 167.594 158.211 167.419 155.417C167.433 155.638 167.434 153.57 167.421 149.213C167.406 143.552 167.181 137.265 166.747 130.351C166.701 129.61 166.915 128.964 167.389 128.413C167.876 127.86 168.51 127.56 169.289 127.511C170.069 127.462 170.735 127.681 171.287 128.168C171.84 128.655 172.139 129.269 172.186 130.01C172.62 136.937 172.845 143.328 172.86 149.185C172.808 150.232 172.785 151.832 172.789 153.984C175.866 153.739 179.769 152.738 184.499 150.98C184.792 150.87 185.075 150.807 185.348 150.789C186.167 150.738 186.848 150.995 187.393 151.561C187.881 152.066 188.146 152.649 188.187 153.312C188.257 154.43 187.743 155.277 186.644 155.855ZM212.77 155.547C211.741 155.573 210.632 154.429 209.443 152.116C208.658 150.626 207.956 148.895 207.337 146.925C206.384 147.128 204.821 147.37 202.646 147.65C200.602 147.921 199.04 148.189 197.961 148.452C197.453 149.919 196.548 152.135 195.247 155.1C194.734 156.072 193.97 156.589 192.957 156.653C192.242 156.698 191.584 156.498 190.982 156.053C190.379 155.595 190.054 154.989 190.007 154.235C189.965 153.572 190.773 151.265 192.43 147.312C192.222 146.921 192.121 146.549 192.125 146.196C192.138 145.569 192.737 145.042 193.924 144.616C195.569 141.303 197.414 137.86 199.46 134.288C202.4 129.159 204.247 126.571 205.001 126.523C206.43 126.434 207.439 127.238 208.029 128.936C208.376 130.311 208.916 132.371 209.649 135.117C210.677 138.81 211.913 143.031 213.359 147.78C213.473 148.138 213.858 148.975 214.515 150.291C215.053 151.379 215.339 152.203 215.374 152.762C215.421 153.515 215.175 154.164 214.635 154.706C214.108 155.248 213.486 155.528 212.77 155.547ZM204.245 136.003C203.34 137.808 202.092 140.268 200.5 143.381C201.077 143.215 201.98 143.054 203.21 142.898C204.659 142.716 205.571 142.587 205.945 142.511C205.527 140.842 204.96 138.672 204.245 136.003ZM239.587 129.129C239.01 130.535 237.863 133.569 236.146 138.23C234.721 142.129 233.491 145.194 232.456 147.424C230.664 151.294 229.703 153.344 229.574 153.574C228.878 154.752 228.03 155.373 227.029 155.436C226.315 155.481 225.67 155.286 225.094 154.853C224.464 154.37 224.125 153.746 224.077 152.979C224.037 152.342 225.227 149.58 227.647 144.692C226.556 143.313 224.983 141.213 222.927 138.393C221.388 136.324 219.124 133.198 216.135 129.015C215.848 128.589 215.689 128.136 215.659 127.655C215.612 126.902 215.864 126.247 216.416 125.69C216.932 125.175 217.553 124.895 218.281 124.849C219.139 124.795 219.946 125.182 220.702 126.008L222.311 128.256C222.412 128.406 223.648 130.233 226.021 133.738C227.518 135.979 228.829 137.743 229.953 139.029C230.816 136.979 232.051 133.881 233.656 129.736C233.99 128.815 234.49 127.42 235.155 125.552C235.576 124.352 236.384 123.714 237.579 123.639C238.294 123.594 238.939 123.788 239.514 124.222C240.144 124.691 240.482 125.309 240.531 126.076C240.558 126.518 240.244 127.536 239.587 129.129ZM262.998 126.722C262.738 126.738 262.463 126.716 262.172 126.656C260.031 126.216 257.966 126.059 255.978 126.184C255.003 126.245 253.962 126.388 252.854 126.614C251.746 126.84 250.572 127.149 249.331 127.54C249.439 129.268 249.542 131.838 249.638 135.251C250.363 135.153 252.888 134.753 257.215 134.051C259.681 133.649 261.246 133.427 261.909 133.385C262.676 133.337 263.347 133.543 263.924 134.002C264.5 134.449 264.813 135.075 264.864 135.881C264.961 137.427 264.191 138.356 262.553 138.668C261.519 138.811 259.974 139.038 257.919 139.35C256.087 139.673 253.322 140.101 249.624 140.633C249.636 142.289 249.674 143.624 249.738 144.638C249.898 147.185 250.138 148.624 250.459 148.957C250.612 149.117 251.436 149.15 252.931 149.056C253.736 149.005 254.95 148.91 256.572 148.769C258.194 148.628 259.408 148.532 260.214 148.482C260.474 148.465 260.855 148.402 261.357 148.293C261.858 148.183 262.233 148.12 262.48 148.105C263.233 148.058 263.89 148.232 264.45 148.627C265.091 149.07 265.439 149.726 265.493 150.597C265.584 152.052 264.879 152.971 263.376 153.352C262.092 153.68 259.404 153.973 255.31 154.23C251.074 154.495 248.276 154.097 246.918 153.034C245.422 151.862 244.543 149.178 244.28 144.98C244.171 143.239 244.13 140.619 244.159 137.121C244.199 133.609 244.165 130.988 244.057 129.26C244.029 128.805 243.922 128.14 243.736 127.264C243.55 126.376 243.443 125.704 243.414 125.249C243.29 123.274 244.138 122.229 245.957 122.115C246.529 122.08 247.066 122.209 247.567 122.504C249.051 122.032 250.463 121.663 251.803 121.397C253.155 121.116 254.435 120.938 255.644 120.862C258.919 120.657 261.561 120.869 263.571 121.5C264.795 121.88 265.444 122.668 265.519 123.863C265.562 124.539 265.365 125.151 264.93 125.701C264.448 126.331 263.804 126.671 262.998 126.722ZM289.862 150.36C289.16 150.404 288.5 150.172 287.881 149.663C283.712 146.219 279.224 143.93 274.417 142.796C274.797 146.569 275 148.663 275.026 149.079C275.073 149.82 274.852 150.467 274.365 151.019C273.877 151.558 273.243 151.853 272.464 151.901C271.684 151.95 271.018 151.738 270.467 151.263C269.914 150.776 269.615 150.162 269.568 149.422C269.507 148.447 269.429 146.991 269.333 145.053C269.237 143.102 269.158 141.639 269.097 140.664L268.15 124.931C268.097 124.086 268.302 123.304 268.766 122.583C269.373 121.658 270.264 121.204 271.44 121.222C274.612 121.258 276.238 121.28 276.317 121.288C278.15 121.395 279.724 121.733 281.038 122.303C286.762 124.749 289.754 128.038 290.013 132.171C290.12 133.873 289.629 135.417 288.542 136.803C287.467 138.175 285.795 139.382 283.525 140.425C287.089 142.132 289.805 143.932 291.672 145.824C292.159 146.315 292.423 146.879 292.463 147.516C292.508 148.244 292.275 148.891 291.763 149.458C291.249 150.012 290.616 150.313 289.862 150.36ZM275.829 126.622C275.724 126.615 274.961 126.611 273.539 126.609L274.188 136.96C274.514 136.952 274.8 136.941 275.047 136.925C278.231 136.726 280.564 136.181 282.048 135.292C282.69 134.913 283.266 134.427 283.777 133.834C284.3 133.24 284.553 132.8 284.535 132.514C284.444 131.059 283.433 129.713 281.503 128.477C279.669 127.314 277.778 126.695 275.829 126.622Z" fill="black"/>
</svg>
