<svg width="548" height="268" viewBox="0 0 548 268" fill="none" xmlns="http://www.w3.org/2000/svg">
<path d="M24.2946 64.352C21.4466 64.352 18.6626 64.144 15.9426 63.728C13.2546 63.312 10.8226 62.72 8.64663 61.952C6.47063 61.152 4.74263 60.176 3.46263 59.024C2.21463 57.872 1.59063 56.56 1.59063 55.088C1.59063 53.712 1.89463 52.64 2.50263 51.872C3.14263 51.072 3.97463 50.528 4.99863 50.24C6.05463 49.92 7.19063 49.76 8.40663 49.76C8.95063 49.76 9.76663 49.968 10.8546 50.384C11.9426 50.768 13.2706 51.168 14.8386 51.584C16.4066 52 18.1826 52.208 20.1666 52.208C22.4386 52.208 24.4226 52.128 26.1186 51.968C27.8146 51.776 29.2226 51.44 30.3426 50.96C31.4946 50.48 32.3586 49.808 32.9346 48.944C33.5106 48.08 33.7986 46.96 33.7986 45.584C33.7986 44.336 33.4626 43.232 32.7906 42.272C32.1506 41.312 31.2386 40.432 30.0546 39.632C28.9026 38.832 27.5266 38.08 25.9266 37.376C24.3586 36.672 22.6466 35.952 20.7906 35.216C18.3586 34.288 16.0866 33.296 13.9746 32.24C11.8946 31.152 10.0546 29.936 8.45463 28.592C6.85463 27.248 5.60663 25.744 4.71063 24.08C3.81463 22.384 3.36663 20.464 3.36663 18.32C3.36663 15.824 3.95863 13.664 5.14263 11.84C6.32663 10.016 7.91063 8.48 9.89463 7.232C11.8786 5.952 14.0866 4.94399 16.5186 4.20799C18.9826 3.44 21.5106 2.896 24.1026 2.576C26.6946 2.224 29.1586 2.048 31.4946 2.048C34.1186 2.048 36.5986 2.24 38.9346 2.62399C41.2706 2.976 43.3346 3.504 45.1266 4.20799C46.9506 4.88 48.3746 5.696 49.3986 6.656C50.4226 7.616 50.9346 8.704 50.9346 9.92C50.9346 11.136 50.6466 12.128 50.0706 12.896C49.4946 13.664 48.7426 14.24 47.8146 14.624C46.9186 14.976 45.9426 15.152 44.8866 15.152C44.2786 15.152 43.4786 14.928 42.4866 14.48C41.5266 14 40.3106 13.536 38.8386 13.088C37.3986 12.64 35.6226 12.416 33.5106 12.416C32.1346 12.416 30.7746 12.528 29.4306 12.752C28.1186 12.944 26.9186 13.28 25.8306 13.76C24.7426 14.208 23.8786 14.832 23.2386 15.632C22.5986 16.432 22.2786 17.456 22.2786 18.704C22.2786 19.952 22.5986 21.056 23.2386 22.016C23.8786 22.944 24.7586 23.792 25.8786 24.56C26.9986 25.296 28.3106 26.016 29.8146 26.72C31.3506 27.392 32.9986 28.08 34.7586 28.784C37.1586 29.744 39.4626 30.832 41.6706 32.048C43.9106 33.232 45.9106 34.592 47.6706 36.128C49.4306 37.632 50.8066 39.328 51.7986 41.216C52.8226 43.104 53.3346 45.232 53.3346 47.6C53.3346 50.672 52.5666 53.28 51.0306 55.424C49.5266 57.568 47.4306 59.296 44.7426 60.608C42.0866 61.92 38.9986 62.864 35.4786 63.44C31.9906 64.048 28.2626 64.352 24.2946 64.352ZM88.5951 63.056C86.5151 63.056 84.4831 62.752 82.4991 62.144C80.5471 61.568 78.8991 60.528 77.5551 59.024C76.2111 57.52 75.4591 55.424 75.2991 52.736C75.2031 51.84 75.1231 50.864 75.0591 49.808C74.9951 48.72 74.9311 47.568 74.8671 46.352C74.8351 45.136 74.7871 43.888 74.7231 42.608C74.6911 41.296 74.6591 39.984 74.6271 38.672C74.6271 37.328 74.6111 36.016 74.5791 34.736C74.5791 33.296 74.2911 32.368 73.7151 31.952C73.1391 31.504 72.3071 31.232 71.2191 31.136C70.6111 31.072 69.8591 31.024 68.9631 30.992C68.0991 30.928 67.2031 30.864 66.2751 30.8C65.3471 30.736 64.4831 30.672 63.6831 30.608C62.3071 30.448 61.2351 29.936 60.4671 29.072C59.7311 28.208 59.3631 26.992 59.3631 25.424C59.3631 24.336 59.5871 23.504 60.0351 22.928C60.4831 22.352 61.0911 21.92 61.8591 21.632C62.6271 21.312 63.4911 21.072 64.4511 20.912C66.0511 20.752 67.3951 20.592 68.4831 20.432C69.6031 20.272 70.6271 20.128 71.5551 20C72.5471 19.872 73.2831 19.6 73.7631 19.184C74.2431 18.736 74.5311 17.968 74.6271 16.88C74.7231 16.176 74.8031 15.408 74.8671 14.576C74.9311 13.744 75.0111 12.912 75.1071 12.08C75.2031 11.248 75.3151 10.528 75.4431 9.92C75.8911 8.288 76.4991 7.088 77.2671 6.32C78.0671 5.552 79.3151 5.168 81.0111 5.168C82.3871 5.168 83.4751 5.376 84.2751 5.792C85.0751 6.176 85.6831 6.784 86.0991 7.616C86.5151 8.416 86.8351 9.472 87.0591 10.784C87.1551 11.68 87.2351 12.48 87.2991 13.184C87.3631 13.888 87.4111 14.544 87.4431 15.152C87.5071 15.728 87.5711 16.272 87.6351 16.784C87.6991 17.296 87.7631 17.808 87.8271 18.32C87.9231 19.28 88.2591 19.984 88.8351 20.432C89.4111 20.848 90.1791 21.12 91.1391 21.248C92.0031 21.344 92.8991 21.456 93.8271 21.584C94.7871 21.68 95.7151 21.776 96.6111 21.872C97.5071 21.936 98.2911 22.032 98.9631 22.16C100.403 22.352 101.651 22.784 102.707 23.456C103.763 24.096 104.291 25.2 104.291 26.768C104.291 28.144 103.859 29.248 102.995 30.08C102.131 30.912 101.011 31.376 99.6351 31.472C97.8431 31.536 96.1631 31.584 94.5951 31.616C93.0271 31.616 91.7951 31.648 90.8991 31.712C90.1951 31.744 89.6031 31.952 89.1231 32.336C88.6751 32.72 88.4191 33.616 88.3551 35.024C88.3231 36.08 88.3071 37.152 88.3071 38.24C88.3071 39.328 88.3231 40.416 88.3551 41.504C88.3871 42.592 88.4191 43.664 88.4511 44.72C88.5151 45.744 88.5791 46.72 88.6431 47.648C88.7391 48.576 88.8351 49.44 88.9311 50.24C89.1231 51.872 89.5391 53.008 90.1791 53.648C90.8191 54.256 91.7471 54.56 92.9631 54.56C94.2431 54.56 95.2511 54.304 95.9871 53.792C96.7551 53.28 97.4271 52.768 98.0031 52.256C98.5791 51.744 99.2191 51.488 99.9231 51.488C100.915 51.488 101.619 51.744 102.035 52.256C102.451 52.768 102.659 53.52 102.659 54.512C102.659 55.728 102.243 56.848 101.411 57.872C100.579 58.896 99.4751 59.808 98.0991 60.608C96.7231 61.376 95.2031 61.968 93.5391 62.384C91.9071 62.832 90.2591 63.056 88.5951 63.056ZM138.1 65.264C133.332 65.264 129.204 64.576 125.716 63.2C122.26 61.824 119.396 59.824 117.124 57.2C114.884 54.576 113.22 51.376 112.132 47.6C111.044 43.824 110.5 39.52 110.5 34.688C110.5 33.472 110.548 32.272 110.644 31.088C110.74 29.904 110.884 28.768 111.076 27.68C111.3 26.56 111.556 25.552 111.844 24.656C112.58 22.384 113.62 20.704 114.964 19.616C116.308 18.528 117.924 17.984 119.812 17.984C121.636 17.984 122.996 18.32 123.892 18.992C124.788 19.664 125.38 20.512 125.668 21.536C125.988 22.528 126.164 23.52 126.196 24.512C126.228 25.184 126.244 25.936 126.244 26.768C126.276 27.568 126.292 28.4 126.292 29.264C126.324 30.128 126.34 30.96 126.34 31.76C126.372 32.56 126.42 33.296 126.484 33.968C126.676 37.68 127.156 40.912 127.924 43.664C128.724 46.384 129.972 48.512 131.668 50.048C133.396 51.552 135.7 52.304 138.58 52.304C141.428 52.304 143.748 51.712 145.54 50.528C147.364 49.312 148.788 47.552 149.812 45.248C150.836 42.912 151.604 40.064 152.116 36.704C152.308 35.776 152.452 34.832 152.548 33.872C152.676 32.88 152.772 31.888 152.836 30.896C152.932 29.904 153.028 28.912 153.124 27.92C153.252 26.928 153.396 25.936 153.556 24.944C154.004 22.832 154.772 21.184 155.86 20C156.98 18.784 158.612 18.176 160.756 18.176C162.58 18.176 163.972 18.736 164.932 19.856C165.892 20.976 166.564 22.528 166.948 24.512C167.044 25.6 167.124 26.704 167.188 27.824C167.252 28.944 167.284 30.08 167.284 31.232C167.284 32.352 167.268 33.488 167.236 34.64C167.204 35.76 167.156 36.88 167.092 38C166.772 44.048 165.46 49.104 163.156 53.168C160.852 57.2 157.604 60.224 153.412 62.24C149.22 64.256 144.116 65.264 138.1 65.264ZM197.242 64.64C192.506 64.64 188.378 63.856 184.858 62.288C181.338 60.752 178.618 58.432 176.698 55.328C174.778 52.192 173.818 48.288 173.818 43.616C173.818 39.2 174.65 35.488 176.314 32.48C177.978 29.44 180.378 27.152 183.514 25.616C186.682 24.048 190.49 23.264 194.938 23.264C197.274 23.264 199.21 23.52 200.746 24.032C202.282 24.544 203.53 25.072 204.49 25.616C205.162 26 205.754 26.336 206.266 26.624C206.81 26.88 207.21 27.008 207.466 27.008C207.946 27.008 208.186 26.56 208.186 25.664C208.186 24.96 208.122 24.016 207.994 22.832C207.866 21.616 207.69 20.288 207.466 18.848C207.274 17.408 207.066 15.968 206.842 14.528C206.65 13.056 206.474 11.696 206.314 10.448C206.186 9.2 206.122 8.192 206.122 7.424C206.122 2.784 208.442 0.463997 213.082 0.463997C214.714 0.463997 216.218 0.815996 217.594 1.51999C219.002 2.192 220.154 3.248 221.05 4.688C221.53 5.744 221.994 7.168 222.442 8.96C222.922 10.72 223.354 12.672 223.738 14.816C224.122 16.928 224.458 19.104 224.746 21.344C225.066 23.552 225.29 25.664 225.418 27.68C225.578 29.664 225.658 31.376 225.658 32.816C225.658 40.048 224.73 46.016 222.874 50.72C221.018 55.424 218.01 58.928 213.85 61.232C209.722 63.504 204.186 64.64 197.242 64.64ZM197.722 55.904C200.314 55.904 202.522 55.424 204.346 54.464C206.17 53.472 207.546 52.08 208.474 50.288C209.434 48.464 209.914 46.336 209.914 43.904C209.914 41.472 209.466 39.44 208.57 37.808C207.674 36.176 206.41 34.944 204.778 34.112C203.178 33.248 201.258 32.816 199.018 32.816C196.49 32.816 194.282 33.28 192.394 34.208C190.506 35.104 189.034 36.432 187.978 38.192C186.922 39.952 186.394 42.08 186.394 44.576C186.394 46.912 186.858 48.928 187.786 50.624C188.714 52.288 190.026 53.584 191.722 54.512C193.45 55.44 195.45 55.904 197.722 55.904ZM241.267 81.2C239.539 81.2 238.147 80.72 237.091 79.76C236.035 78.832 235.507 77.712 235.507 76.4C235.507 74.96 236.003 73.68 236.995 72.56C238.019 71.472 239.411 70.544 241.171 69.776C242.771 68.816 244.387 67.776 246.019 66.656C247.683 65.568 249.203 64.448 250.579 63.296C251.987 62.176 253.123 61.104 253.987 60.08C254.851 59.056 255.283 58.16 255.283 57.392C255.283 56.72 254.803 55.968 253.843 55.136C252.883 54.304 251.299 53.296 249.091 52.112C247.299 51.12 245.539 49.904 243.811 48.464C242.083 46.992 240.467 45.392 238.963 43.664C237.459 41.936 236.131 40.144 234.979 38.288C233.859 36.432 232.963 34.576 232.291 32.72C231.651 30.864 231.331 29.088 231.331 27.392C231.331 26.048 231.635 24.848 232.243 23.792C232.883 22.704 233.731 21.856 234.787 21.248C235.875 20.64 237.091 20.336 238.435 20.336C240.515 20.336 242.275 20.8 243.715 21.728C245.155 22.656 246.451 24.24 247.603 26.48C248.915 29.808 250.307 32.896 251.779 35.744C253.283 38.592 254.787 40.976 256.291 42.896C257.123 43.952 257.987 44.848 258.883 45.584C259.779 46.32 260.515 46.688 261.091 46.688C261.987 46.688 262.835 46.272 263.635 45.44C264.435 44.608 265.075 43.696 265.555 42.704C267.059 40.24 268.387 37.52 269.539 34.544C270.691 31.536 271.843 28.56 272.995 25.616C273.891 23.92 274.947 22.528 276.163 21.44C277.379 20.352 278.819 19.808 280.483 19.808C283.011 19.808 284.771 20.448 285.763 21.728C286.787 23.008 287.299 24.672 287.299 26.72C287.299 28.64 286.963 30.768 286.291 33.104C285.651 35.408 284.771 37.808 283.651 40.304C282.563 42.8 281.331 45.264 279.955 47.696C278.611 50.128 277.203 52.416 275.731 54.56C274.291 56.672 272.915 58.512 271.603 60.08C269.427 62.672 267.059 65.216 264.499 67.712C261.971 70.24 259.379 72.512 256.723 74.528C254.067 76.576 251.427 78.192 248.803 79.376C246.179 80.592 243.667 81.2 241.267 81.2ZM307.363 63.152C304.611 63.152 302.387 62.768 300.691 62C298.995 61.2 297.683 60 296.755 58.4C295.859 56.768 295.219 54.72 294.835 52.256C294.419 50.144 294.131 47.68 293.971 44.864C293.811 42.016 293.731 38.864 293.731 35.408C293.731 31.472 293.827 27.792 294.019 24.368C294.243 20.912 294.659 17.84 295.267 15.152C296.131 11.504 297.555 8.64 299.539 6.56C301.555 4.448 304.547 3.392 308.515 3.392C313.539 3.392 318.275 4.016 322.723 5.264C327.203 6.48 331.283 8.144 334.963 10.256C338.643 12.336 341.811 14.688 344.467 17.312C347.123 19.936 349.171 22.688 350.611 25.568C352.051 28.416 352.771 31.2 352.771 33.92C352.771 37.024 352.019 40.032 350.515 42.944C349.043 45.824 346.947 48.496 344.227 50.96C341.507 53.424 338.259 55.568 334.483 57.392C330.739 59.216 326.563 60.64 321.955 61.664C317.379 62.656 312.515 63.152 307.363 63.152ZM313.891 48.848C316.899 48.848 319.619 48.528 322.051 47.888C324.515 47.216 326.675 46.336 328.531 45.248C330.419 44.128 331.987 42.88 333.235 41.504C334.515 40.096 335.475 38.64 336.115 37.136C336.755 35.6 337.075 34.128 337.075 32.72C337.075 31.44 336.691 30.096 335.923 28.688C335.187 27.248 334.115 25.856 332.707 24.512C331.299 23.136 329.603 21.904 327.619 20.816C325.635 19.696 323.395 18.816 320.899 18.176C318.435 17.504 315.763 17.168 312.883 17.168C311.987 17.168 311.267 17.52 310.723 18.224C310.179 18.928 309.747 19.92 309.427 21.2C309.203 22.32 309.011 23.6 308.851 25.04C308.723 26.48 308.659 28 308.659 29.6C308.659 33.088 308.723 36.08 308.851 38.576C308.979 41.04 309.235 43.04 309.619 44.576C310.323 47.424 311.747 48.848 313.891 48.848ZM386.713 64.592C382.873 64.592 379.193 64.176 375.673 63.344C372.153 62.512 369.001 61.184 366.217 59.36C363.433 57.536 361.225 55.152 359.593 52.208C357.993 49.264 357.193 45.68 357.193 41.456C357.193 36.816 357.977 32.752 359.545 29.264C361.113 25.744 363.273 22.8 366.025 20.432C368.777 18.064 371.961 16.288 375.577 15.104C379.225 13.92 383.113 13.328 387.241 13.328C391.081 13.328 394.777 13.808 398.329 14.768C401.913 15.728 405.097 17.232 407.881 19.28C410.697 21.296 412.921 23.904 414.553 27.104C416.185 30.304 417.001 34.128 417.001 38.576C417.001 42 416.281 45.28 414.841 48.416C413.401 51.52 411.337 54.288 408.649 56.72C405.961 59.152 402.761 61.072 399.049 62.48C395.369 63.888 391.257 64.592 386.713 64.592ZM386.089 51.584C388.905 51.584 391.305 51.152 393.289 50.288C395.305 49.392 396.937 48.224 398.185 46.784C399.433 45.344 400.345 43.776 400.921 42.08C401.497 40.352 401.785 38.64 401.785 36.944C401.785 34.64 401.337 32.672 400.441 31.04C399.545 29.408 398.345 28.096 396.841 27.104C395.337 26.08 393.657 25.344 391.801 24.896C389.945 24.416 388.057 24.176 386.137 24.176C383.609 24.176 381.225 24.72 378.985 25.808C376.745 26.864 374.921 28.48 373.513 30.656C372.137 32.8 371.449 35.504 371.449 38.768C371.449 41.424 372.009 43.712 373.129 45.632C374.281 47.552 375.945 49.024 378.121 50.048C380.297 51.072 382.953 51.584 386.089 51.584ZM436.21 63.44C435.058 63.44 434.034 63.248 433.138 62.864C432.242 62.48 431.442 61.952 430.738 61.28C430.066 60.608 429.442 59.808 428.866 58.88C428.226 57.664 427.634 56.272 427.09 54.704C426.578 53.136 426.146 51.488 425.794 49.76C425.442 48.032 425.17 46.304 424.978 44.576C424.786 42.848 424.69 41.216 424.69 39.68C424.69 34.4 425.73 29.936 427.81 26.288C429.89 22.608 432.85 19.808 436.69 17.888C440.562 15.968 445.138 15.008 450.418 15.008C452.754 15.008 455.01 15.184 457.186 15.536C459.362 15.888 461.314 16.432 463.042 17.168C464.77 17.872 466.13 18.768 467.122 19.856C468.146 20.912 468.658 22.144 468.658 23.552C468.658 24.832 468.402 25.84 467.89 26.576C467.378 27.312 466.706 27.824 465.874 28.112C465.042 28.4 464.178 28.544 463.282 28.544C461.682 28.544 460.018 28.304 458.29 27.824C456.594 27.344 454.45 27.104 451.858 27.104C448.21 27.104 445.442 28.224 443.554 30.464C441.698 32.672 440.77 35.744 440.77 39.68C440.77 41.12 440.834 42.528 440.962 43.904C441.09 45.248 441.25 46.544 441.442 47.792C441.666 49.04 441.874 50.208 442.066 51.296C442.29 52.384 442.466 53.36 442.594 54.224C442.722 55.088 442.786 55.84 442.786 56.48C442.786 58.88 442.242 60.64 441.154 61.76C440.098 62.88 438.45 63.44 436.21 63.44ZM478.986 63.056C477.482 63.056 476.266 62.688 475.338 61.952C474.442 61.184 473.786 60.096 473.37 58.688C472.954 57.28 472.746 55.616 472.746 53.696C472.746 52.32 472.778 50.848 472.842 49.28C472.938 47.68 473.082 46.048 473.274 44.384C473.466 42.688 473.706 41.008 473.994 39.344C474.282 37.648 474.634 36.032 475.05 34.496C475.466 32.928 475.946 31.472 476.49 30.128C478.218 26.32 480.33 23.424 482.826 21.44C485.354 19.456 488.378 18.464 491.898 18.464C494.298 18.464 496.282 19.056 497.85 20.24C499.45 21.424 500.762 22.976 501.786 24.896C502.842 26.784 503.706 28.784 504.378 30.896C504.922 32.464 505.514 33.84 506.154 35.024C506.826 36.208 507.594 36.8 508.458 36.8C509.45 36.8 510.41 36.256 511.338 35.168C512.298 34.08 513.29 32.624 514.314 30.8C515.658 28.368 517.034 26.256 518.442 24.464C519.882 22.672 521.514 21.28 523.338 20.288C525.162 19.264 527.338 18.752 529.866 18.752C533.354 18.752 536.138 19.728 538.218 21.68C540.33 23.6 541.85 26.208 542.778 29.504C543.738 32.8 544.218 36.512 544.218 40.64C544.218 42.08 544.17 43.568 544.074 45.104C544.01 46.608 543.914 48.112 543.786 49.616C543.658 51.088 543.482 52.512 543.258 53.888C543.034 55.264 542.762 56.544 542.442 57.728C541.866 59.584 541.082 60.928 540.09 61.76C539.098 62.592 537.802 63.008 536.202 63.008C534.73 63.008 533.514 62.64 532.554 61.904C531.626 61.136 530.938 60.128 530.49 58.88C530.394 58.24 530.314 57.52 530.25 56.72C530.218 55.92 530.202 55.04 530.202 54.08C530.202 53.12 530.202 52.08 530.202 50.96C530.234 49.84 530.25 48.64 530.25 47.36C530.25 46.048 530.234 44.672 530.202 43.232C530.106 41.472 529.898 39.856 529.578 38.384C529.258 36.88 528.794 35.696 528.186 34.832C527.578 33.936 526.762 33.488 525.738 33.488C524.746 33.488 523.786 33.952 522.858 34.88C521.962 35.808 521.098 37.024 520.266 38.528C519.434 40.032 518.602 41.648 517.77 43.376C516.362 46.416 514.938 48.688 513.498 50.192C512.058 51.696 510.154 52.448 507.786 52.448C505.418 52.448 503.61 51.712 502.362 50.24C501.114 48.736 500.154 46.736 499.482 44.24C498.938 42.288 498.41 40.576 497.898 39.104C497.386 37.6 496.794 36.432 496.122 35.6C495.45 34.736 494.602 34.304 493.578 34.304C492.65 34.304 491.77 34.752 490.938 35.648C490.138 36.512 489.386 37.84 488.682 39.632C488.01 41.584 487.45 43.584 487.002 45.632C486.586 47.68 486.266 49.664 486.042 51.584C485.85 53.472 485.706 55.232 485.61 56.864C485.194 59.104 484.506 60.704 483.546 61.664C482.586 62.592 481.066 63.056 478.986 63.056Z" fill="black"/>
<path d="M208.059 152.584C207.568 152.584 207.195 152.456 206.939 152.2C206.704 151.965 206.587 151.677 206.587 151.336C206.587 150.888 206.832 150.419 207.323 149.928C207.813 149.459 208.411 148.989 209.115 148.52C210.331 147.645 211.504 146.696 212.635 145.672C213.787 144.648 214.821 143.645 215.739 142.664C216.656 141.683 217.381 140.797 217.915 140.008C218.469 139.219 218.747 138.611 218.747 138.184C218.747 137.821 218.469 137.341 217.915 136.744C217.36 136.147 216.56 135.421 215.515 134.568C214.576 133.757 213.616 132.744 212.635 131.528C211.653 130.291 210.715 128.947 209.819 127.496C208.923 126.045 208.123 124.584 207.419 123.112C206.715 121.619 206.16 120.211 205.755 118.888C205.349 117.544 205.147 116.371 205.147 115.368C205.147 115.027 205.221 114.728 205.371 114.472C205.52 114.195 205.712 113.992 205.947 113.864C206.203 113.715 206.48 113.64 206.779 113.64C207.397 113.64 207.92 113.864 208.347 114.312C208.795 114.76 209.253 115.645 209.723 116.968C210.661 119.976 211.856 122.76 213.307 125.32C214.779 127.88 216.197 130.024 217.563 131.752C218.267 132.605 218.981 133.352 219.707 133.992C220.453 134.632 221.008 134.952 221.371 134.952C221.925 134.952 222.48 134.643 223.035 134.024C223.611 133.384 224.112 132.744 224.539 132.104C226.075 129.885 227.312 127.549 228.251 125.096C229.189 122.621 230.107 119.965 231.003 117.128C231.408 116.04 231.835 115.133 232.283 114.408C232.731 113.683 233.221 113.32 233.755 113.32C234.352 113.32 234.768 113.501 235.003 113.864C235.237 114.227 235.355 114.675 235.355 115.208C235.355 116.616 235.12 118.195 234.651 119.944C234.181 121.672 233.552 123.464 232.763 125.32C231.995 127.155 231.131 128.957 230.171 130.728C229.211 132.477 228.229 134.099 227.227 135.592C226.224 137.064 225.275 138.301 224.379 139.304C223.12 140.691 221.723 142.152 220.187 143.688C218.672 145.245 217.147 146.696 215.611 148.04C214.096 149.405 212.667 150.504 211.323 151.336C210 152.168 208.912 152.584 208.059 152.584ZM256.824 142.568C254.456 142.568 252.184 142.291 250.008 141.736C247.832 141.203 245.891 140.339 244.184 139.144C242.499 137.949 241.166 136.381 240.184 134.44C239.203 132.499 238.712 130.12 238.712 127.304C238.712 124.211 239.192 121.523 240.152 119.24C241.112 116.957 242.446 115.069 244.152 113.576C245.859 112.083 247.822 110.973 250.04 110.248C252.28 109.501 254.67 109.128 257.208 109.128C259.406 109.128 261.603 109.416 263.8 109.992C266.019 110.547 268.046 111.453 269.88 112.712C271.715 113.949 273.187 115.592 274.296 117.64C275.406 119.688 275.96 122.195 275.96 125.16C275.96 127.293 275.566 129.395 274.776 131.464C274.008 133.512 272.835 135.379 271.256 137.064C269.678 138.728 267.694 140.061 265.304 141.064C262.915 142.067 260.088 142.568 256.824 142.568ZM256.76 138.792C259.491 138.792 261.806 138.365 263.704 137.512C265.603 136.659 267.139 135.539 268.312 134.152C269.507 132.765 270.371 131.261 270.904 129.64C271.438 128.019 271.704 126.419 271.704 124.84C271.704 122.557 271.267 120.627 270.392 119.048C269.539 117.469 268.398 116.2 266.968 115.24C265.539 114.28 263.939 113.587 262.168 113.16C260.398 112.712 258.606 112.488 256.792 112.488C254.403 112.488 252.142 113 250.008 114.024C247.875 115.048 246.136 116.605 244.792 118.696C243.47 120.787 242.808 123.453 242.808 126.696C242.808 129.256 243.331 131.443 244.376 133.256C245.422 135.069 246.979 136.445 249.048 137.384C251.118 138.323 253.688 138.792 256.76 138.792ZM295.168 142.92C292.31 142.92 289.931 142.408 288.032 141.384C286.134 140.381 284.63 138.941 283.52 137.064C282.411 135.187 281.622 132.979 281.152 130.44C280.704 127.88 280.48 125.064 280.48 121.992C280.48 121.288 280.491 120.573 280.512 119.848C280.534 119.101 280.576 118.387 280.64 117.704C280.704 117 280.779 116.381 280.864 115.848C281.056 114.461 281.344 113.512 281.728 113C282.112 112.488 282.582 112.232 283.136 112.232C283.627 112.232 283.99 112.392 284.224 112.712C284.48 113.011 284.64 113.395 284.704 113.864C284.79 114.333 284.843 114.813 284.864 115.304C284.864 115.688 284.854 116.168 284.832 116.744C284.811 117.32 284.79 117.939 284.768 118.6C284.768 119.24 284.758 119.88 284.736 120.52C284.736 121.139 284.736 121.693 284.736 122.184C284.779 125.448 285.11 128.371 285.728 130.952C286.368 133.533 287.446 135.571 288.96 137.064C290.496 138.536 292.63 139.272 295.36 139.272C298.283 139.272 300.587 138.675 302.272 137.48C303.979 136.285 305.248 134.6 306.08 132.424C306.934 130.248 307.563 127.677 307.968 124.712C308.054 124.051 308.128 123.368 308.192 122.664C308.278 121.939 308.342 121.213 308.384 120.488C308.448 119.741 308.512 118.984 308.576 118.216C308.64 117.448 308.694 116.691 308.736 115.944C308.843 114.579 309.046 113.544 309.344 112.84C309.664 112.136 310.176 111.784 310.88 111.784C311.456 111.784 311.862 112.051 312.096 112.584C312.352 113.096 312.512 113.853 312.576 114.856C312.598 115.731 312.598 116.595 312.576 117.448C312.576 118.301 312.555 119.155 312.512 120.008C312.491 120.84 312.448 121.661 312.384 122.472C312.32 123.283 312.246 124.083 312.16 124.872C311.776 128.584 310.966 131.795 309.728 134.504C308.512 137.213 306.72 139.293 304.352 140.744C302.006 142.195 298.944 142.92 295.168 142.92ZM322.75 141.544C322.408 141.544 322.088 141.437 321.79 141.224C321.512 141.011 321.246 140.712 320.99 140.328C320.755 139.944 320.542 139.496 320.35 138.984C320.051 138.173 319.774 137.213 319.518 136.104C319.262 134.995 319.038 133.853 318.846 132.68C318.654 131.485 318.504 130.323 318.398 129.192C318.312 128.061 318.27 127.048 318.27 126.152C318.27 122.717 318.835 119.827 319.966 117.48C321.096 115.133 322.771 113.363 324.99 112.168C327.23 110.952 329.992 110.344 333.278 110.344C334.515 110.344 335.678 110.429 336.766 110.6C337.854 110.749 338.814 110.973 339.646 111.272C340.499 111.571 341.16 111.912 341.63 112.296C342.12 112.68 342.366 113.107 342.366 113.576C342.366 113.853 342.291 114.099 342.142 114.312C342.014 114.504 341.843 114.653 341.63 114.76C341.416 114.867 341.182 114.92 340.926 114.92C340.158 114.92 339.166 114.749 337.95 114.408C336.755 114.045 335.112 113.864 333.022 113.864C329.459 113.864 326.835 114.984 325.15 117.224C323.486 119.443 322.654 122.365 322.654 125.992C322.654 127.251 322.707 128.467 322.814 129.64C322.942 130.813 323.091 131.933 323.262 133C323.454 134.045 323.635 135.005 323.806 135.88C323.976 136.755 324.115 137.512 324.222 138.152C324.35 138.771 324.414 139.24 324.414 139.56C324.414 140.328 324.254 140.851 323.934 141.128C323.635 141.405 323.24 141.544 322.75 141.544ZM209.384 197.992C208.296 197.992 207.058 197.928 205.672 197.8C204.285 197.693 202.941 197.523 201.64 197.288C200.338 197.053 199.272 196.765 198.44 196.424C197.949 196.189 197.544 195.944 197.224 195.688C196.925 195.432 196.776 195.112 196.776 194.728C196.776 194.259 196.914 193.928 197.192 193.736C197.49 193.544 197.906 193.448 198.44 193.448C198.994 193.448 199.784 193.565 200.808 193.8C201.832 194.035 203.005 194.28 204.328 194.536C205.672 194.792 207.069 194.92 208.52 194.92C210.162 194.92 211.762 194.76 213.319 194.44C214.898 194.12 216.189 193.587 217.192 192.84C218.194 192.093 218.696 191.069 218.696 189.768C218.696 188.616 218.397 187.677 217.8 186.952C217.202 186.205 216.189 185.565 214.76 185.032C213.33 184.499 211.357 183.965 208.84 183.432C206.365 182.899 204.285 182.248 202.6 181.48C200.936 180.712 199.677 179.773 198.824 178.664C197.97 177.555 197.544 176.253 197.544 174.76C197.544 173.501 197.885 172.403 198.568 171.464C199.272 170.504 200.242 169.704 201.48 169.064C202.717 168.424 204.125 167.944 205.704 167.624C207.304 167.304 209.01 167.144 210.824 167.144C211.826 167.144 212.861 167.197 213.928 167.304C214.994 167.411 215.986 167.571 216.904 167.784C217.842 167.976 218.6 168.221 219.176 168.52C219.752 168.797 220.04 169.117 220.04 169.48C220.04 169.779 219.965 170.024 219.816 170.216C219.666 170.387 219.453 170.515 219.176 170.6C218.92 170.685 218.6 170.728 218.216 170.728C217.448 170.728 216.456 170.632 215.24 170.44C214.045 170.227 212.594 170.12 210.888 170.12C209.309 170.12 207.826 170.291 206.44 170.632C205.074 170.952 203.965 171.464 203.112 172.168C202.28 172.851 201.864 173.757 201.864 174.888C201.864 176.531 202.685 177.8 204.328 178.696C205.992 179.592 208.328 180.36 211.336 181C214.066 181.576 216.264 182.248 217.928 183.016C219.592 183.784 220.808 184.712 221.576 185.8C222.365 186.867 222.76 188.179 222.76 189.736C222.76 191.293 222.376 192.605 221.608 193.672C220.84 194.717 219.816 195.56 218.536 196.2C217.256 196.819 215.816 197.267 214.216 197.544C212.637 197.843 211.026 197.992 209.384 197.992ZM240.392 197.608C239.689 197.608 238.899 197.48 238.025 197.224C237.171 196.968 236.403 196.435 235.721 195.624C235.038 194.792 234.59 193.555 234.377 191.912C234.291 191.208 234.195 190.397 234.089 189.48C234.003 188.541 233.918 187.528 233.833 186.44C233.747 185.352 233.673 184.211 233.609 183.016C233.566 181.8 233.513 180.563 233.449 179.304C233.406 178.024 233.385 176.744 233.385 175.464C233.363 174.504 233.235 173.875 233.001 173.576C232.766 173.256 232.35 173.064 231.753 173C231.369 172.957 230.814 172.925 230.089 172.904C229.385 172.883 228.659 172.861 227.913 172.84C227.166 172.819 226.537 172.787 226.025 172.744C225.385 172.701 224.926 172.563 224.649 172.328C224.371 172.072 224.233 171.72 224.233 171.272C224.233 170.995 224.307 170.771 224.457 170.6C224.627 170.429 224.873 170.301 225.193 170.216C225.513 170.109 225.907 170.045 226.377 170.024C227.635 169.96 228.638 169.907 229.385 169.864C230.131 169.821 230.835 169.779 231.497 169.736C232.222 169.693 232.702 169.533 232.937 169.256C233.193 168.979 233.353 168.456 233.417 167.688C233.459 167.24 233.481 166.685 233.481 166.024C233.502 165.363 233.523 164.701 233.545 164.04C233.566 163.357 233.598 162.781 233.641 162.312C233.769 161.416 233.939 160.733 234.153 160.264C234.387 159.795 234.771 159.56 235.305 159.56C235.774 159.56 236.126 159.677 236.361 159.912C236.617 160.125 236.787 160.456 236.873 160.904C236.979 161.352 237.054 161.917 237.097 162.6C237.118 163.368 237.129 164.051 237.129 164.648C237.15 165.224 237.161 165.747 237.161 166.216C237.182 166.664 237.193 167.069 237.193 167.432C237.214 167.795 237.246 168.125 237.289 168.424C237.331 169.021 237.491 169.427 237.769 169.64C238.046 169.853 238.515 169.992 239.177 170.056C239.774 170.077 240.478 170.131 241.289 170.216C242.099 170.28 242.878 170.344 243.625 170.408C244.371 170.472 244.947 170.536 245.353 170.6C246.099 170.707 246.686 170.867 247.113 171.08C247.539 171.272 247.753 171.581 247.753 172.008C247.753 172.435 247.582 172.765 247.241 173C246.921 173.213 246.419 173.331 245.737 173.352C244.201 173.352 242.803 173.331 241.545 173.288C240.307 173.224 239.358 173.192 238.697 173.192C238.185 173.213 237.833 173.352 237.641 173.608C237.47 173.843 237.374 174.525 237.353 175.656C237.353 176.701 237.363 177.779 237.385 178.888C237.427 179.997 237.47 181.107 237.513 182.216C237.555 183.325 237.609 184.413 237.673 185.48C237.737 186.525 237.811 187.517 237.897 188.456C237.982 189.395 238.089 190.227 238.217 190.952C238.451 192.531 238.825 193.565 239.337 194.056C239.87 194.525 240.467 194.76 241.128 194.76C242.217 194.76 243.038 194.536 243.593 194.088C244.169 193.619 244.627 193.16 244.969 192.712C245.331 192.243 245.726 192.008 246.153 192.008C246.473 192.008 246.707 192.093 246.857 192.264C247.027 192.435 247.113 192.691 247.113 193.032C247.113 193.523 246.921 194.035 246.537 194.568C246.174 195.101 245.673 195.603 245.033 196.072C244.393 196.52 243.667 196.883 242.857 197.16C242.067 197.459 241.246 197.608 240.392 197.608ZM254.778 208.584C254.287 208.584 253.914 208.456 253.658 208.2C253.423 207.965 253.306 207.677 253.306 207.336C253.306 206.888 253.551 206.419 254.042 205.928C254.532 205.459 255.13 204.989 255.834 204.52C257.05 203.645 258.223 202.696 259.354 201.672C260.506 200.648 261.54 199.645 262.458 198.664C263.375 197.683 264.1 196.797 264.634 196.008C265.188 195.219 265.466 194.611 265.466 194.184C265.466 193.821 265.188 193.341 264.634 192.744C264.079 192.147 263.279 191.421 262.234 190.568C261.295 189.757 260.335 188.744 259.354 187.528C258.372 186.291 257.434 184.947 256.538 183.496C255.642 182.045 254.842 180.584 254.138 179.112C253.434 177.619 252.879 176.211 252.474 174.888C252.068 173.544 251.866 172.371 251.866 171.368C251.866 171.027 251.94 170.728 252.09 170.472C252.239 170.195 252.431 169.992 252.666 169.864C252.922 169.715 253.199 169.64 253.498 169.64C254.116 169.64 254.639 169.864 255.066 170.312C255.514 170.76 255.972 171.645 256.442 172.968C257.38 175.976 258.575 178.76 260.026 181.32C261.498 183.88 262.916 186.024 264.282 187.752C264.986 188.605 265.7 189.352 266.426 189.992C267.172 190.632 267.727 190.952 268.09 190.952C268.644 190.952 269.199 190.643 269.753 190.024C270.33 189.384 270.831 188.744 271.258 188.104C272.794 185.885 274.031 183.549 274.97 181.096C275.908 178.621 276.826 175.965 277.722 173.128C278.127 172.04 278.554 171.133 279.002 170.408C279.45 169.683 279.94 169.32 280.474 169.32C281.071 169.32 281.487 169.501 281.722 169.864C281.956 170.227 282.074 170.675 282.074 171.208C282.074 172.616 281.839 174.195 281.37 175.944C280.9 177.672 280.271 179.464 279.482 181.32C278.714 183.155 277.85 184.957 276.89 186.728C275.93 188.477 274.948 190.099 273.946 191.592C272.943 193.064 271.994 194.301 271.098 195.304C269.839 196.691 268.442 198.152 266.906 199.688C265.391 201.245 263.866 202.696 262.33 204.04C260.815 205.405 259.386 206.504 258.042 207.336C256.719 208.168 255.631 208.584 254.778 208.584ZM300.151 198.568C297.079 198.568 294.444 198.003 292.247 196.872C290.05 195.72 288.364 194.067 287.191 191.912C286.018 189.757 285.431 187.187 285.431 184.2C285.431 181.363 286.018 178.952 287.191 176.968C288.364 174.963 290.018 173.437 292.151 172.392C294.306 171.347 296.834 170.824 299.735 170.824C301.506 170.824 302.967 171.016 304.119 171.4C305.292 171.784 306.252 172.2 306.999 172.648C307.596 172.989 308.13 173.299 308.599 173.576C309.09 173.832 309.442 173.96 309.655 173.96C309.975 173.96 310.135 173.608 310.135 172.904C310.135 172.221 310.071 171.379 309.943 170.376C309.836 169.373 309.698 168.296 309.527 167.144C309.356 165.992 309.175 164.851 308.983 163.72C308.812 162.589 308.663 161.555 308.535 160.616C308.428 159.656 308.375 158.899 308.375 158.344C308.375 156.915 308.983 156.2 310.199 156.2C310.668 156.2 311.095 156.371 311.479 156.712C311.884 157.053 312.215 157.544 312.471 158.184C312.727 159.016 313.004 160.211 313.303 161.768C313.602 163.325 313.879 165.075 314.135 167.016C314.412 168.957 314.668 170.909 314.903 172.872C315.138 174.835 315.319 176.637 315.447 178.28C315.575 179.923 315.639 181.224 315.639 182.184C315.639 185.811 315.095 188.84 314.007 191.272C312.94 193.704 311.266 195.528 308.983 196.744C306.7 197.96 303.756 198.568 300.151 198.568ZM300.247 195.72C302.636 195.72 304.631 195.283 306.231 194.408C307.852 193.533 309.068 192.264 309.879 190.6C310.711 188.915 311.127 186.888 311.127 184.52C311.127 182.216 310.7 180.285 309.847 178.728C308.994 177.171 307.778 175.997 306.199 175.208C304.642 174.397 302.754 173.992 300.535 173.992C298.167 173.992 296.14 174.376 294.455 175.144C292.77 175.912 291.479 177.064 290.583 178.6C289.708 180.136 289.271 182.088 289.271 184.456C289.271 186.76 289.719 188.755 290.615 190.44C291.532 192.125 292.812 193.427 294.455 194.344C296.098 195.261 298.028 195.72 300.247 195.72ZM322.715 208.584C322.224 208.584 321.851 208.456 321.595 208.2C321.36 207.965 321.243 207.677 321.243 207.336C321.243 206.888 321.488 206.419 321.979 205.928C322.47 205.459 323.067 204.989 323.771 204.52C324.987 203.645 326.16 202.696 327.291 201.672C328.443 200.648 329.478 199.645 330.395 198.664C331.312 197.683 332.038 196.797 332.571 196.008C333.126 195.219 333.403 194.611 333.403 194.184C333.403 193.821 333.126 193.341 332.571 192.744C332.016 192.147 331.216 191.421 330.171 190.568C329.232 189.757 328.272 188.744 327.291 187.528C326.31 186.291 325.371 184.947 324.475 183.496C323.579 182.045 322.779 180.584 322.075 179.112C321.371 177.619 320.816 176.211 320.411 174.888C320.006 173.544 319.803 172.371 319.803 171.368C319.803 171.027 319.878 170.728 320.027 170.472C320.176 170.195 320.368 169.992 320.603 169.864C320.859 169.715 321.136 169.64 321.435 169.64C322.054 169.64 322.576 169.864 323.003 170.312C323.451 170.76 323.91 171.645 324.379 172.968C325.318 175.976 326.512 178.76 327.963 181.32C329.435 183.88 330.854 186.024 332.219 187.752C332.923 188.605 333.638 189.352 334.363 189.992C335.11 190.632 335.664 190.952 336.027 190.952C336.582 190.952 337.136 190.643 337.691 190.024C338.267 189.384 338.768 188.744 339.195 188.104C340.731 185.885 341.968 183.549 342.907 181.096C343.846 178.621 344.763 175.965 345.659 173.128C346.064 172.04 346.491 171.133 346.939 170.408C347.387 169.683 347.878 169.32 348.411 169.32C349.008 169.32 349.424 169.501 349.659 169.864C349.894 170.227 350.011 170.675 350.011 171.208C350.011 172.616 349.776 174.195 349.307 175.944C348.838 177.672 348.208 179.464 347.419 181.32C346.651 183.155 345.787 184.957 344.827 186.728C343.867 188.477 342.886 190.099 341.883 191.592C340.88 193.064 339.931 194.301 339.035 195.304C337.776 196.691 336.379 198.152 334.843 199.688C333.328 201.245 331.803 202.696 330.267 204.04C328.752 205.405 327.323 206.504 325.979 207.336C324.656 208.168 323.568 208.584 322.715 208.584ZM164.598 267.976C164.256 267.976 163.958 267.869 163.702 267.656C163.467 267.443 163.254 267.048 163.062 266.472C162.891 265.896 162.742 265.075 162.614 264.008C162.507 262.941 162.4 261.8 162.294 260.584C162.208 259.389 162.123 258.152 162.038 256.872C161.974 255.613 161.91 254.333 161.846 253.032C161.803 251.752 161.771 250.504 161.75 249.288C161.728 248.072 161.718 246.899 161.718 245.768C161.718 241.672 162.251 238.045 163.318 234.888C164.384 231.731 166.112 229.267 168.502 227.496C170.912 225.704 174.123 224.808 178.134 224.808C180.822 224.808 183.115 225.192 185.014 225.96C186.912 226.728 188.459 227.795 189.654 229.16C190.87 230.525 191.755 232.115 192.31 233.928C192.864 235.741 193.142 237.693 193.142 239.784C193.142 242.067 192.854 244.136 192.278 245.992C191.702 247.848 190.731 249.448 189.366 250.792C188.022 252.115 186.187 253.128 183.862 253.832C181.536 254.557 178.603 254.92 175.062 254.92C173.462 254.92 172.139 254.792 171.094 254.536C170.048 254.301 169.227 254.056 168.63 253.8C168.032 253.565 167.616 253.448 167.382 253.448C166.976 253.448 166.688 253.565 166.518 253.8C166.347 254.056 166.251 254.685 166.23 255.688C166.208 256.115 166.198 256.787 166.198 257.704C166.219 258.643 166.219 259.645 166.198 260.712C166.198 261.8 166.198 262.792 166.198 263.688C166.219 264.584 166.23 265.213 166.23 265.576C166.208 266.429 166.07 267.037 165.814 267.4C165.558 267.784 165.152 267.976 164.598 267.976ZM174.742 251.592C178.475 251.592 181.398 251.123 183.51 250.184C185.643 249.245 187.158 247.88 188.054 246.088C188.95 244.275 189.398 242.077 189.398 239.496C189.398 237.491 189.088 235.624 188.47 233.896C187.872 232.168 186.774 230.771 185.174 229.704C183.574 228.637 181.27 228.104 178.262 228.104C176.022 228.104 174.123 228.488 172.566 229.256C171.008 230.024 169.76 231.112 168.822 232.52C167.904 233.907 167.232 235.549 166.806 237.448C166.4 239.325 166.198 241.405 166.198 243.688C166.198 245.928 166.443 247.613 166.934 248.744C167.424 249.875 168.288 250.632 169.526 251.016C170.763 251.4 172.502 251.592 174.742 251.592ZM209.507 255.464C207.843 255.464 206.296 255.293 204.867 254.952C203.459 254.611 202.222 254.077 201.155 253.352C200.11 252.627 199.288 251.699 198.691 250.568C198.115 249.437 197.827 248.083 197.827 246.504C197.827 244.499 198.307 242.867 199.267 241.608C200.248 240.349 201.56 239.379 203.203 238.696C204.867 237.992 206.734 237.512 208.803 237.256C210.872 237 213.006 236.872 215.203 236.872C215.971 236.872 216.76 236.893 217.571 236.936C218.382 236.979 219.15 237.021 219.875 237.064C220.6 237.107 221.208 237.128 221.699 237.128C222.296 237.128 222.702 237.043 222.915 236.872C223.128 236.68 223.235 236.339 223.235 235.848C223.235 234.739 223.096 233.757 222.819 232.904C222.542 232.029 222.147 231.272 221.635 230.632C221.123 229.992 220.515 229.437 219.811 228.968C218.723 228.264 217.432 227.763 215.939 227.464C214.467 227.144 212.888 226.984 211.203 226.984C209.262 226.984 207.63 227.197 206.307 227.624C204.984 228.029 203.886 228.445 203.011 228.872C202.136 229.299 201.4 229.512 200.803 229.512C200.248 229.512 199.832 229.427 199.555 229.256C199.299 229.064 199.171 228.755 199.171 228.328C199.171 227.816 199.459 227.293 200.035 226.76C200.632 226.205 201.475 225.704 202.563 225.256C203.651 224.787 204.952 224.413 206.467 224.136C207.982 223.837 209.656 223.688 211.491 223.688C215.075 223.688 218.051 224.2 220.419 225.224C222.787 226.227 224.558 227.805 225.731 229.96C226.904 232.115 227.491 234.952 227.491 238.472C227.491 239.688 227.416 240.755 227.267 241.672C227.139 242.589 226.979 243.379 226.787 244.04C226.595 244.701 226.424 245.277 226.275 245.768C226.147 246.237 226.083 246.653 226.083 247.016C226.083 247.485 226.222 247.912 226.499 248.296C226.798 248.68 227.139 249.043 227.523 249.384C227.928 249.704 228.27 250.045 228.547 250.408C228.846 250.749 228.995 251.133 228.995 251.56C228.995 252.179 228.782 252.616 228.355 252.872C227.95 253.107 227.534 253.224 227.107 253.224C226.574 253.224 226.126 253.011 225.763 252.584C225.4 252.157 225.048 251.741 224.707 251.336C224.366 250.931 223.939 250.728 223.427 250.728C223.128 250.728 222.819 250.792 222.499 250.92C222.2 251.048 221.806 251.304 221.315 251.688C220.718 252.157 219.939 252.68 218.979 253.256C218.019 253.853 216.771 254.365 215.235 254.792C213.72 255.24 211.811 255.464 209.507 255.464ZM210.243 252.552C211.907 252.552 213.507 252.285 215.043 251.752C216.6 251.219 217.987 250.483 219.203 249.544C220.419 248.584 221.379 247.475 222.083 246.216C222.808 244.936 223.171 243.571 223.171 242.12C223.171 241.267 222.872 240.659 222.275 240.296C221.699 239.933 220.718 239.709 219.331 239.624C217.966 239.539 216.099 239.496 213.731 239.496C211.491 239.496 209.443 239.72 207.587 240.168C205.731 240.595 204.248 241.32 203.139 242.344C202.03 243.347 201.475 244.723 201.475 246.472C201.475 247.816 201.806 248.936 202.467 249.832C203.15 250.728 204.142 251.411 205.443 251.88C206.766 252.328 208.366 252.552 210.243 252.552ZM237.969 253.544C237.627 253.544 237.307 253.437 237.009 253.224C236.731 253.011 236.465 252.712 236.209 252.328C235.974 251.944 235.761 251.496 235.569 250.984C235.27 250.173 234.993 249.213 234.737 248.104C234.481 246.995 234.257 245.853 234.065 244.68C233.873 243.485 233.723 242.323 233.617 241.192C233.531 240.061 233.489 239.048 233.489 238.152C233.489 234.717 234.054 231.827 235.185 229.48C236.315 227.133 237.99 225.363 240.209 224.168C242.449 222.952 245.211 222.344 248.497 222.344C249.734 222.344 250.897 222.429 251.985 222.6C253.073 222.749 254.033 222.973 254.865 223.272C255.718 223.571 256.379 223.912 256.849 224.296C257.339 224.68 257.585 225.107 257.585 225.576C257.585 225.853 257.51 226.099 257.361 226.312C257.233 226.504 257.062 226.653 256.849 226.76C256.635 226.867 256.401 226.92 256.145 226.92C255.377 226.92 254.385 226.749 253.169 226.408C251.974 226.045 250.331 225.864 248.241 225.864C244.678 225.864 242.054 226.984 240.369 229.224C238.705 231.443 237.873 234.365 237.873 237.992C237.873 239.251 237.926 240.467 238.033 241.64C238.161 242.813 238.31 243.933 238.481 245C238.673 246.045 238.854 247.005 239.025 247.88C239.195 248.755 239.334 249.512 239.441 250.152C239.569 250.771 239.633 251.24 239.633 251.56C239.633 252.328 239.473 252.851 239.153 253.128C238.854 253.405 238.459 253.544 237.969 253.544ZM277.08 253.608C276.376 253.608 275.587 253.48 274.712 253.224C273.859 252.968 273.091 252.435 272.408 251.624C271.725 250.792 271.277 249.555 271.064 247.912C270.979 247.208 270.883 246.397 270.776 245.48C270.691 244.541 270.605 243.528 270.52 242.44C270.435 241.352 270.36 240.211 270.296 239.016C270.253 237.8 270.2 236.563 270.136 235.304C270.093 234.024 270.072 232.744 270.072 231.464C270.051 230.504 269.923 229.875 269.688 229.576C269.453 229.256 269.037 229.064 268.44 229C268.056 228.957 267.501 228.925 266.776 228.904C266.072 228.883 265.347 228.861 264.6 228.84C263.853 228.819 263.224 228.787 262.712 228.744C262.072 228.701 261.613 228.563 261.336 228.328C261.059 228.072 260.92 227.72 260.92 227.272C260.92 226.995 260.995 226.771 261.144 226.6C261.315 226.429 261.56 226.301 261.88 226.216C262.2 226.109 262.595 226.045 263.064 226.024C264.323 225.96 265.325 225.907 266.072 225.864C266.819 225.821 267.523 225.779 268.184 225.736C268.909 225.693 269.389 225.533 269.624 225.256C269.88 224.979 270.04 224.456 270.104 223.688C270.147 223.24 270.168 222.685 270.168 222.024C270.189 221.363 270.211 220.701 270.232 220.04C270.253 219.357 270.285 218.781 270.328 218.312C270.456 217.416 270.627 216.733 270.84 216.264C271.075 215.795 271.459 215.56 271.992 215.56C272.461 215.56 272.813 215.677 273.048 215.912C273.304 216.125 273.475 216.456 273.56 216.904C273.667 217.352 273.741 217.917 273.784 218.6C273.805 219.368 273.816 220.051 273.816 220.648C273.837 221.224 273.848 221.747 273.848 222.216C273.869 222.664 273.88 223.069 273.88 223.432C273.901 223.795 273.933 224.125 273.976 224.424C274.019 225.021 274.179 225.427 274.456 225.64C274.733 225.853 275.203 225.992 275.864 226.056C276.461 226.077 277.165 226.131 277.976 226.216C278.787 226.28 279.565 226.344 280.312 226.408C281.059 226.472 281.635 226.536 282.04 226.6C282.787 226.707 283.373 226.867 283.8 227.08C284.227 227.272 284.44 227.581 284.44 228.008C284.44 228.435 284.269 228.765 283.928 229C283.608 229.213 283.107 229.331 282.424 229.352C280.888 229.352 279.491 229.331 278.232 229.288C276.995 229.224 276.045 229.192 275.384 229.192C274.872 229.213 274.52 229.352 274.328 229.608C274.157 229.843 274.061 230.525 274.04 231.656C274.04 232.701 274.051 233.779 274.072 234.888C274.115 235.997 274.157 237.107 274.2 238.216C274.243 239.325 274.296 240.413 274.36 241.48C274.424 242.525 274.499 243.517 274.584 244.456C274.669 245.395 274.776 246.227 274.904 246.952C275.139 248.531 275.512 249.565 276.024 250.056C276.557 250.525 277.155 250.76 277.816 250.76C278.904 250.76 279.725 250.536 280.28 250.088C280.856 249.619 281.315 249.16 281.656 248.712C282.019 248.243 282.413 248.008 282.84 248.008C283.16 248.008 283.395 248.093 283.544 248.264C283.715 248.435 283.8 248.691 283.8 249.032C283.8 249.523 283.608 250.035 283.224 250.568C282.861 251.101 282.36 251.603 281.72 252.072C281.08 252.52 280.355 252.883 279.544 253.16C278.755 253.459 277.933 253.608 277.08 253.608ZM290.985 253.704C290.388 253.704 289.95 253.469 289.673 253C289.396 252.509 289.214 251.72 289.129 250.632C289.086 250.035 289.076 249.352 289.097 248.584C289.118 247.795 289.15 246.888 289.193 245.864C289.257 244.84 289.342 243.709 289.449 242.472C289.812 238.355 290.644 234.867 291.945 232.008C293.268 229.128 295.092 226.952 297.417 225.48C299.764 223.987 302.622 223.24 305.993 223.24C309.364 223.24 312.18 223.944 314.441 225.352C316.702 226.739 318.398 228.947 319.529 231.976C320.681 235.005 321.257 238.973 321.257 243.88C321.257 244.819 321.246 245.683 321.225 246.472C321.225 247.24 321.204 247.944 321.161 248.584C321.14 249.203 321.097 249.757 321.033 250.248C320.862 251.549 320.617 252.456 320.297 252.968C319.977 253.459 319.476 253.704 318.793 253.704C318.281 253.704 317.897 253.576 317.641 253.32C317.385 253.064 317.204 252.669 317.097 252.136C316.99 251.603 316.926 250.931 316.905 250.12C316.884 248.264 316.862 246.632 316.841 245.224C316.82 243.816 316.766 242.557 316.681 241.448C316.617 240.339 316.521 239.293 316.393 238.312C316.265 237.309 316.094 236.275 315.881 235.208C315.326 232.499 314.324 230.408 312.873 228.936C311.422 227.464 309.214 226.728 306.249 226.728C303.326 226.728 301.001 227.528 299.273 229.128C297.566 230.707 296.265 232.84 295.369 235.528C294.985 236.637 294.676 237.768 294.441 238.92C294.228 240.072 294.046 241.245 293.897 242.44C293.769 243.635 293.673 244.872 293.609 246.152C293.545 247.411 293.481 248.701 293.417 250.024C293.374 251.048 293.246 251.827 293.033 252.36C292.841 252.893 292.574 253.245 292.233 253.416C291.892 253.608 291.476 253.704 290.985 253.704ZM343.856 254.92C340.336 254.92 337.328 254.387 334.832 253.32C332.336 252.275 330.416 250.643 329.072 248.424C327.749 246.205 327.088 243.357 327.088 239.88C327.088 237 327.557 234.493 328.496 232.36C329.434 230.205 330.714 228.413 332.336 226.984C333.978 225.555 335.877 224.488 338.032 223.784C340.208 223.059 342.512 222.696 344.944 222.696C346.608 222.696 348.144 222.899 349.552 223.304C350.981 223.688 352.229 224.275 353.296 225.064C354.362 225.853 355.184 226.835 355.76 228.008C356.357 229.16 356.656 230.515 356.656 232.072C356.656 233.992 356.208 235.528 355.312 236.68C354.416 237.832 353.21 238.717 351.696 239.336C350.181 239.933 348.464 240.339 346.544 240.552C344.645 240.765 342.672 240.893 340.624 240.936C339.792 241 338.821 241.032 337.712 241.032C336.624 241.032 335.589 241.021 334.608 241C333.648 240.979 332.944 240.968 332.496 240.968C331.877 240.968 331.45 241.064 331.216 241.256C331.002 241.448 330.896 241.789 330.896 242.28C330.896 242.92 331.088 243.709 331.472 244.648C331.856 245.587 332.389 246.504 333.072 247.4C334.416 249.107 335.962 250.248 337.712 250.824C339.461 251.379 341.637 251.656 344.24 251.656C346.202 251.656 347.909 251.443 349.36 251.016C350.81 250.589 352.016 250.173 352.976 249.768C353.936 249.341 354.693 249.128 355.248 249.128C355.653 249.128 355.952 249.213 356.144 249.384C356.357 249.533 356.464 249.811 356.464 250.216C356.464 250.664 356.154 251.155 355.536 251.688C354.938 252.221 354.085 252.733 352.976 253.224C351.888 253.715 350.565 254.12 349.008 254.44C347.472 254.76 345.754 254.92 343.856 254.92ZM340.847 238.6C343.066 238.6 345.082 238.408 346.896 238.024C348.73 237.64 350.192 236.968 351.28 236.008C352.389 235.048 352.944 233.693 352.944 231.944C352.944 229.896 352.208 228.317 350.736 227.208C349.285 226.077 347.141 225.512 344.304 225.512C342.64 225.512 341.029 225.811 339.472 226.408C337.936 226.984 336.56 227.795 335.344 228.84C334.149 229.864 333.189 231.037 332.464 232.36C331.76 233.661 331.408 235.059 331.408 236.552C331.408 237.213 331.696 237.693 332.272 237.992C332.869 238.269 333.85 238.44 335.216 238.504C336.602 238.568 338.48 238.6 340.847 238.6ZM366.531 253.544C366.19 253.544 365.87 253.437 365.571 253.224C365.294 253.011 365.027 252.712 364.771 252.328C364.536 251.944 364.323 251.496 364.131 250.984C363.832 250.173 363.555 249.213 363.299 248.104C363.043 246.995 362.819 245.853 362.627 244.68C362.435 243.485 362.286 242.323 362.179 241.192C362.094 240.061 362.051 239.048 362.051 238.152C362.051 234.717 362.616 231.827 363.747 229.48C364.878 227.133 366.552 225.363 368.771 224.168C371.011 222.952 373.774 222.344 377.059 222.344C378.296 222.344 379.459 222.429 380.547 222.6C381.635 222.749 382.595 222.973 383.427 223.272C384.28 223.571 384.942 223.912 385.411 224.296C385.902 224.68 386.147 225.107 386.147 225.576C386.147 225.853 386.072 226.099 385.923 226.312C385.795 226.504 385.624 226.653 385.411 226.76C385.198 226.867 384.963 226.92 384.707 226.92C383.939 226.92 382.947 226.749 381.731 226.408C380.536 226.045 378.894 225.864 376.803 225.864C373.24 225.864 370.616 226.984 368.931 229.224C367.267 231.443 366.435 234.365 366.435 237.992C366.435 239.251 366.488 240.467 366.595 241.64C366.723 242.813 366.872 243.933 367.043 245C367.235 246.045 367.416 247.005 367.587 247.88C367.758 248.755 367.896 249.512 368.003 250.152C368.131 250.771 368.195 251.24 368.195 251.56C368.195 252.328 368.035 252.851 367.715 253.128C367.416 253.405 367.022 253.544 366.531 253.544Z" fill="black"/>
</svg>
