<svg width="456" height="419" viewBox="0 0 456 419" fill="none" xmlns="http://www.w3.org/2000/svg">
<rect x="46.6057" y="166.203" width="347.017" height="130.131" rx="65.0657" transform="rotate(-5.12119 46.6057 166.203)" fill="#FFADED"/>
<path d="M110.151 244.631C109.45 244.675 108.789 244.442 108.17 243.933C104.001 240.489 99.5133 238.201 94.7063 237.067C95.0864 240.84 95.2895 242.934 95.3156 243.35C95.3621 244.09 95.1417 244.737 94.6545 245.289C94.1664 245.829 93.5326 246.123 92.7528 246.172C91.9731 246.221 91.3075 246.008 90.7559 245.534C90.2035 245.047 89.904 244.433 89.8576 243.692C89.7965 242.717 89.7182 241.261 89.6227 239.323C89.5265 237.372 89.4478 235.909 89.3867 234.935L88.4391 219.201C88.3861 218.357 88.5914 217.574 89.0551 216.854C89.6624 215.928 90.5537 215.475 91.729 215.492C94.9015 215.528 96.5272 215.55 96.606 215.558C98.4392 215.665 100.013 216.003 101.327 216.573C107.051 219.019 110.043 222.308 110.302 226.441C110.409 228.143 109.919 229.687 108.832 231.073C107.756 232.445 106.084 233.653 103.814 234.695C107.378 236.403 110.094 238.202 111.961 240.094C112.448 240.586 112.712 241.15 112.752 241.786C112.798 242.514 112.564 243.162 112.052 243.729C111.539 244.283 110.905 244.583 110.151 244.631ZM96.1186 220.892C96.0138 220.886 95.2503 220.881 93.8281 220.879L94.4772 231.23C94.8029 231.223 95.0892 231.211 95.3362 231.196C98.52 230.996 100.854 230.452 102.338 229.563C102.979 229.183 103.555 228.697 104.066 228.104C104.59 227.51 104.843 227.07 104.825 226.784C104.733 225.329 103.723 223.983 101.793 222.748C99.9585 221.584 98.0671 220.966 96.1186 220.892ZM133.813 217.824C133.553 217.84 133.278 217.818 132.987 217.758C130.846 217.318 128.781 217.161 126.793 217.285C125.818 217.347 124.777 217.49 123.669 217.716C122.561 217.942 121.387 218.251 120.146 218.642C120.254 220.37 120.357 222.94 120.453 226.352C121.178 226.255 123.703 225.855 128.03 225.153C130.496 224.75 132.061 224.528 132.724 224.487C133.491 224.439 134.162 224.645 134.739 225.104C135.315 225.551 135.628 226.177 135.679 226.983C135.776 228.529 135.006 229.458 133.368 229.769C132.334 229.913 130.789 230.14 128.734 230.451C126.902 230.775 124.137 231.203 120.439 231.735C120.451 233.391 120.489 234.726 120.553 235.739C120.713 238.287 120.953 239.726 121.274 240.058C121.427 240.218 122.251 240.251 123.746 240.158C124.551 240.107 125.765 240.011 127.387 239.871C129.009 239.73 130.223 239.634 131.029 239.584C131.289 239.567 131.67 239.504 132.172 239.394C132.673 239.285 133.048 239.222 133.295 239.207C134.049 239.159 134.705 239.333 135.265 239.729C135.906 240.171 136.254 240.828 136.308 241.699C136.4 243.154 135.694 244.072 134.191 244.454C132.907 244.782 130.219 245.075 126.125 245.331C121.889 245.597 119.091 245.198 117.733 244.136C116.237 242.964 115.358 240.279 115.095 236.082C114.986 234.34 114.945 231.721 114.974 228.222C115.014 224.71 114.981 222.09 114.872 220.362C114.844 219.907 114.737 219.242 114.551 218.366C114.365 217.478 114.258 216.806 114.229 216.351C114.105 214.376 114.953 213.331 116.772 213.217C117.344 213.181 117.881 213.311 118.382 213.605C119.866 213.134 121.278 212.765 122.618 212.498C123.97 212.218 125.25 212.04 126.459 211.964C129.734 211.758 132.376 211.971 134.386 212.602C135.61 212.982 136.259 213.769 136.334 214.965C136.377 215.641 136.18 216.253 135.745 216.802C135.263 217.433 134.619 217.773 133.813 217.824ZM148.059 226.558C147.607 228.7 146.987 231.929 146.201 236.244C146.046 237.728 145.898 239.205 145.755 240.676C145.338 242.554 144.415 243.539 142.985 243.628C142.088 243.684 141.361 243.423 140.803 242.845C140.328 242.353 140.069 241.75 140.024 241.035C139.892 238.93 140.179 236.335 140.886 233.251C141.94 228.632 142.504 226.072 142.577 225.572C142.828 223.547 143.086 221.521 143.35 219.496C143.762 216.704 144.278 214.832 144.896 213.88C145.527 212.914 146.363 212.399 147.402 212.333C148.585 212.259 149.493 212.802 150.127 213.963C150.717 215.061 151.421 217.339 152.238 220.797C153.023 224.153 154.103 227.751 155.479 231.592C156.718 227.64 157.83 223.317 158.814 218.624L159.625 214.072C160.21 212.169 161.237 211.172 162.705 211.08C164.122 210.991 165.242 212.004 166.066 214.118C166.407 214.971 166.814 216.576 167.288 218.934C168.389 224.422 169.635 229.106 171.026 232.985C172.435 236.928 173.15 239.075 173.172 239.426C173.22 240.193 172.955 240.855 172.377 241.413C171.834 241.917 171.206 242.191 170.491 242.236C169.074 242.325 167.958 241.377 167.142 239.393L165.755 234.744C164.984 232.444 164.098 229.127 163.096 224.793C162.62 226.572 161.823 229.368 160.706 233.182L159.761 236.842C159.369 238.289 158.942 239.483 158.479 240.426C157.866 241.677 156.942 242.342 155.708 242.419C154.486 242.496 153.505 241.833 152.765 240.432L151.446 236.874C150.224 233.611 149.095 230.173 148.059 226.558ZM191.166 216.184C190.491 216.226 188.627 216.16 185.577 215.986C185.545 218.389 185.653 221.572 185.902 225.535L186.431 234.289C188.157 234.142 189.917 234.012 191.71 233.899C192.49 233.85 193.149 234.07 193.689 234.558C194.241 235.045 194.54 235.653 194.586 236.38C194.631 237.108 194.411 237.748 193.923 238.301C193.448 238.839 192.821 239.133 192.041 239.182C191.314 239.227 190.223 239.315 188.77 239.446C187.316 239.563 186.225 239.644 185.498 239.69C184.64 239.744 183.36 239.935 181.659 240.263C179.958 240.605 178.679 240.803 177.821 240.856C177.042 240.905 176.376 240.693 175.824 240.218C175.285 239.73 174.992 239.123 174.947 238.395C174.901 237.667 175.115 237.027 175.59 236.476C176.077 235.923 176.71 235.623 177.49 235.574C178.374 235.518 179.531 235.348 180.961 235.063C180.839 233.531 180.642 230.595 180.369 226.254C180.148 222.72 180.066 219.339 180.125 216.113L175.902 216.495C175.122 216.544 174.45 216.332 173.886 215.858C173.334 215.384 173.035 214.77 172.987 214.017C172.939 213.25 173.16 212.61 173.65 212.096C174.103 211.624 174.678 211.334 175.376 211.225C176.513 211.049 178.498 210.872 181.331 210.695C183.878 210.535 187.176 210.602 191.226 210.896C192.839 211.017 193.694 211.863 193.793 213.436C193.845 214.267 193.561 214.944 192.941 215.466C192.434 215.902 191.842 216.141 191.166 216.184ZM226.306 232.297C226.347 232.947 226.301 233.98 226.168 235.398C226.013 237.09 225.117 237.988 223.48 238.091C222.57 238.148 221.511 237.699 220.303 236.744C215.017 232.548 208.975 226.58 202.175 218.84C202.309 222.223 202.4 224.299 202.448 225.065C202.512 226.092 202.628 227.637 202.797 229.701C202.979 231.764 203.102 233.309 203.166 234.335C203.406 238.169 202.591 240.144 200.72 240.262C199.771 240.321 198.992 240.077 198.384 239.528C197.845 239.04 197.552 238.425 197.505 237.685C197.473 237.165 197.462 236.376 197.474 235.319C197.499 234.26 197.495 233.471 197.463 232.951C197.415 232.185 197.368 231.033 197.324 229.496C197.28 227.96 197.234 226.808 197.186 226.041C197.135 225.222 197.038 223.989 196.895 222.341C196.753 220.693 196.656 219.46 196.604 218.641C196.555 217.861 196.405 216.703 196.152 215.167C195.899 213.63 195.748 212.472 195.699 211.692C195.65 210.912 195.938 210.196 196.562 209.544C197.2 208.891 197.947 208.537 198.805 208.483C199.767 208.423 200.884 209.188 202.158 210.778C208.586 218.829 214.839 225.332 220.916 230.287C220.903 229.87 220.848 228.882 220.75 227.323C220.348 220.916 220.012 216.599 219.742 214.372C219.692 213.997 219.564 213.3 219.356 212.283C219.169 211.381 219.06 210.67 219.027 210.151C218.915 208.357 219.807 207.401 221.704 207.282C223.823 207.149 225.087 210.351 225.497 216.888C225.506 217.031 225.557 218.058 225.651 219.97C225.987 226.577 226.205 230.686 226.306 232.297ZM233.773 236.839C233.006 236.874 232.346 236.654 231.795 236.18C231.242 235.693 230.943 235.085 230.898 234.357C230.816 233.058 230.752 231.105 230.706 228.499C230.673 225.891 230.616 223.938 230.534 222.638C230.444 221.196 230.276 219.034 230.03 216.153C229.797 213.272 229.635 211.11 229.545 209.667C229.5 208.952 229.8 208.223 230.445 207.478C231.089 206.72 231.8 206.316 232.58 206.267C233.009 206.241 234.113 206.576 235.892 207.273C237.966 208.108 239.196 208.573 239.58 208.666C243.465 209.662 246.834 211.368 249.686 213.786C253.089 216.664 254.907 219.968 255.141 223.698C255.282 225.946 254.864 228.119 253.886 230.215C252.911 232.351 251.501 234.103 249.656 235.471C247.587 237.009 244.597 237.902 240.685 238.147C239.736 238.206 238.636 238.138 237.385 237.943C235.869 237.699 234.665 237.331 233.773 236.839ZM243.472 216.113C242.161 215.399 239.38 214.321 235.128 212.879L236.338 232.177C236.865 232.47 237.459 232.68 238.119 232.809C238.792 232.923 239.531 232.955 240.337 232.904C243.144 232.728 245.134 232.212 246.306 231.356C247.416 230.543 248.269 229.478 248.865 228.162C249.474 226.845 249.735 225.498 249.649 224.121C249.447 220.898 247.388 218.229 243.472 216.113ZM277.125 208.836C276.865 208.852 276.59 208.83 276.299 208.77C274.158 208.33 272.093 208.173 270.105 208.298C269.13 208.359 268.089 208.502 266.981 208.728C265.873 208.954 264.699 209.263 263.458 209.654C263.566 211.382 263.669 213.952 263.766 217.365C264.49 217.267 267.016 216.867 271.342 216.165C273.809 215.763 275.373 215.541 276.036 215.499C276.803 215.451 277.475 215.657 278.051 216.116C278.627 216.563 278.941 217.189 278.991 217.995C279.088 219.541 278.318 220.47 276.681 220.782C275.646 220.925 274.101 221.152 272.046 221.464C270.214 221.787 267.449 222.215 263.751 222.747C263.763 224.403 263.801 225.738 263.865 226.752C264.025 229.299 264.265 230.738 264.586 231.071C264.74 231.231 265.564 231.264 267.058 231.17C267.864 231.119 269.078 231.024 270.699 230.883C272.321 230.742 273.535 230.646 274.341 230.596C274.601 230.579 274.982 230.516 275.484 230.407C275.986 230.297 276.36 230.234 276.607 230.219C277.361 230.172 278.017 230.346 278.577 230.741C279.218 231.184 279.566 231.84 279.62 232.711C279.712 234.166 279.006 235.085 277.504 235.466C276.22 235.794 273.531 236.087 269.437 236.344C265.201 236.609 262.403 236.211 261.045 235.148C259.55 233.976 258.67 231.292 258.407 227.094C258.298 225.353 258.257 222.733 258.286 219.235C258.327 215.723 258.293 213.102 258.184 211.374C258.156 210.919 258.049 210.254 257.863 209.378C257.677 208.49 257.57 207.818 257.541 207.363C257.418 205.388 258.265 204.343 260.085 204.229C260.656 204.194 261.193 204.323 261.694 204.618C263.178 204.146 264.59 203.777 265.93 203.511C267.282 203.23 268.563 203.052 269.771 202.976C273.046 202.771 275.688 202.983 277.698 203.614C278.922 203.994 279.571 204.782 279.646 205.977C279.689 206.653 279.492 207.265 279.057 207.814C278.575 208.445 277.931 208.785 277.125 208.836ZM303.989 232.474C303.288 232.518 302.627 232.286 302.008 231.777C297.839 228.333 293.351 226.044 288.544 224.91C288.924 228.683 289.127 230.777 289.154 231.193C289.2 231.934 288.98 232.581 288.492 233.133C288.004 233.672 287.371 233.967 286.591 234.015C285.811 234.064 285.145 233.852 284.594 233.377C284.041 232.89 283.742 232.276 283.696 231.536C283.634 230.561 283.556 229.105 283.461 227.167C283.364 225.216 283.286 223.753 283.225 222.778L282.277 207.045C282.224 206.2 282.429 205.418 282.893 204.697C283.5 203.772 284.392 203.318 285.567 203.336C288.739 203.372 290.365 203.394 290.444 203.402C292.277 203.509 293.851 203.847 295.165 204.417C300.889 206.863 303.881 210.152 304.14 214.285C304.247 215.987 303.757 217.531 302.669 218.917C301.594 220.289 299.922 221.496 297.652 222.539C301.216 224.246 303.932 226.046 305.799 227.938C306.286 228.429 306.55 228.993 306.59 229.63C306.636 230.358 306.402 231.005 305.89 231.572C305.377 232.126 304.743 232.427 303.989 232.474ZM289.956 208.736C289.852 208.729 289.088 208.725 287.666 208.723L288.315 219.074C288.641 219.066 288.927 219.055 289.174 219.039C292.358 218.84 294.692 218.295 296.175 217.406C296.817 217.027 297.393 216.541 297.904 215.948C298.428 215.354 298.681 214.914 298.663 214.628C298.571 213.173 297.561 211.827 295.631 210.591C293.796 209.428 291.905 208.809 289.956 208.736Z" fill="black"/>
<circle cx="356.793" cy="154.803" r="44.732" transform="rotate(23.8318 356.793 154.803)" fill="#D9D9D9" stroke="black"/>
<circle cx="356.115" cy="155.066" r="31.882" transform="rotate(23.8318 356.115 155.066)" fill="white" stroke="black"/>
<path d="M375.101 196.043L373.157 213.165L366.378 215.79L358.252 199.839L375.101 196.043Z" fill="white" stroke="black"/>
<path d="M314.766 171.078L302.478 183.631L306.153 193.121L322.049 183.847L314.766 171.078Z" fill="white" stroke="black"/>
<path d="M356.17 156.214C355.436 163.981 363.227 169.071 367.215 170.645C369.042 166.507 363.266 155.415 356.17 156.214Z" fill="black"/>
<path d="M356.17 156.214C352.932 146.243 361.459 133.639 366.127 128.583C364.642 140.851 363.67 149.412 356.17 156.214Z" fill="black"/>
<path d="M356.17 156.214C352.932 146.243 361.459 133.639 366.127 128.583C364.642 140.851 363.67 149.412 356.17 156.214ZM356.17 156.214C355.436 163.981 363.227 169.071 367.215 170.645C369.042 166.507 363.266 155.415 356.17 156.214Z" stroke="black"/>
</svg>
