<svg width="417" height="201" viewBox="0 0 417 201" fill="none" xmlns="http://www.w3.org/2000/svg">
<rect x="59.5955" y="66.7472" width="347.017" height="130.131" rx="65.0657" transform="rotate(-5.12119 59.5955 66.7472)" fill="#FFADED"/>
<path d="M179.858 42.1656C129.962 -9.29194 -9.69811 47.5432 44.4278 161.961L56.2064 158.676C17.9322 37.3704 137.829 23.4685 174.387 49.8588L179.858 42.1656Z" fill="#FF5C00"/>
<path d="M174.387 49.8588C137.829 23.4685 17.9322 37.3704 56.2064 158.676L67.3961 155.555C38.6704 52.5555 129.366 38.6412 169.934 56.6513L174.387 49.8588Z" fill="#FFC700"/>
<path d="M169.934 56.6513C129.366 38.6412 38.6704 52.5555 67.3961 155.555L76.2301 153.091C61.8733 118.858 81.233 41.3019 165.371 65.3247L169.934 56.6513Z" fill="#00B2FF"/>
<path d="M44.4278 161.961L43.9759 162.175L44.1561 162.556L44.5622 162.442L44.4278 161.961ZM179.858 42.1656L180.266 42.4554L180.507 42.1163L180.217 41.8175L179.858 42.1656ZM165.371 65.3247L165.234 65.8054L165.624 65.917L165.813 65.5575L165.371 65.3247ZM76.2301 153.091L76.3644 153.573L76.9104 153.421L76.6912 152.898L76.2301 153.091ZM44.8798 161.747C31.3926 133.236 29.9966 108.359 36.2162 87.882C42.4375 67.3996 56.2943 51.2671 73.4049 40.2808C90.5179 29.2928 110.867 23.4654 130.033 23.585C149.2 23.7045 167.142 29.7693 179.499 42.5137L180.217 41.8175C167.627 28.8331 149.4 22.7057 130.039 22.585C110.676 22.4642 90.1378 28.3484 72.8646 39.4393C55.5888 50.5317 41.5607 66.8452 35.2594 87.5914C28.9564 108.343 30.4001 133.477 43.9759 162.175L44.8798 161.747ZM44.5622 162.442L56.3407 159.158L56.0721 158.194L44.2935 161.479L44.5622 162.442ZM56.6832 158.525C47.1373 128.271 47.4726 104.774 53.8549 86.9549C60.2353 69.142 72.6789 56.9468 87.4637 49.3259C102.256 41.7012 119.387 38.6591 135.1 39.1692C150.823 39.6797 165.062 43.7441 174.094 50.2642L174.68 49.4534C165.433 42.7784 150.976 38.6842 135.132 38.1698C119.279 37.655 101.973 40.7218 87.0056 48.437C72.0307 56.1559 59.3917 68.5316 52.9135 86.6177C46.4374 104.698 46.1384 128.428 55.7296 158.826L56.6832 158.525ZM174.795 50.1486L180.266 42.4554L179.451 41.8758L173.98 49.569L174.795 50.1486ZM56.3407 159.158L67.5304 156.037L67.2618 155.074L56.0721 158.194L56.3407 159.158ZM67.8777 155.421C60.7146 129.737 61.0114 109.66 66.0691 94.2719C71.1243 78.8916 80.9498 68.1521 92.9319 61.1564C116.93 47.1453 149.575 48.1598 169.731 57.1083L170.137 56.1943C149.725 47.1327 116.738 46.0993 92.4277 60.2928C80.2557 67.3993 70.2579 78.3252 65.1191 93.9597C59.9828 109.587 59.7148 129.874 66.9145 155.69L67.8777 155.421ZM170.352 56.9254L174.805 50.1329L173.969 49.5847L169.516 56.3771L170.352 56.9254ZM169.492 56.4185L164.928 65.0919L165.813 65.5575L170.377 56.8841L169.492 56.4185ZM165.508 64.8439C144.401 58.8174 127.31 59.1489 113.771 63.6147C100.23 68.0816 90.283 76.6716 83.447 87.0878C69.7943 107.89 68.5255 136.013 75.769 153.285L76.6912 152.898C69.5779 135.937 70.8106 108.165 84.283 87.6364C91.0095 77.3872 100.781 68.9527 114.085 64.5644C127.391 60.1751 144.272 59.8205 165.234 65.8054L165.508 64.8439ZM76.0958 152.61L67.2618 155.074L67.5304 156.037L76.3644 153.573L76.0958 152.61Z" fill="black"/>
<path d="M46.3471 171.339C29.1879 171.74 33.1021 145.966 49.5487 149.329C43.5979 131.412 65.5386 126.554 72.6423 136.953C80.7994 126.494 93.8108 133.727 91.2474 149.307C105.982 159.676 93.9639 178.292 82.5637 170.196C78.2879 192.781 66.9248 186.017 62.618 178.178C58.1381 197.356 38.6526 178.844 46.3471 171.339Z" fill="white" stroke="black"/>
<path d="M175.31 30.4147C186.186 17.2801 203.792 36.5364 190.436 46.7529C208.331 53.6296 197.821 73.1748 185.055 71.9234C187.916 84.6686 173.773 89.8561 163.259 78.0681C145.541 82.5636 138.817 61.756 152.585 58.3245C137.708 40.8156 150.409 36.5681 159.349 38.2983C147.271 22.794 174.457 19.8868 175.31 30.4147Z" fill="white" stroke="black"/>
<path d="M225.744 94.4022C225.103 98.3302 223.517 101.541 220.986 104.035C218.416 106.545 215.306 107.914 211.654 108.143C208.197 108.36 205.548 107.613 203.705 105.902C201.862 104.178 200.826 101.49 200.597 97.8383C200.388 94.5115 200.993 91.0489 202.411 87.4505C203.829 83.8521 205.757 80.8871 208.194 78.5555C209.905 76.9218 211.794 76.0401 213.86 75.9105C215.12 75.8315 216.864 76.1787 219.092 76.9523C221.732 77.8695 223.091 78.9389 223.167 80.1605C223.212 80.8622 222.985 81.5092 222.487 82.1014C221.988 82.6806 221.349 82.9947 220.569 83.0436C220.18 83.0681 219.293 82.7584 217.908 82.1146C216.536 81.457 215.298 81.1628 214.194 81.2321C213.024 81.3054 211.524 82.665 209.694 85.3108C207.026 89.1572 205.826 93.2181 206.094 97.4936C206.23 99.6638 206.641 101.119 207.327 101.859C208.054 102.635 209.385 102.962 211.322 102.841C213.31 102.716 215.022 102.041 216.459 100.816C217.982 99.5204 219.056 97.7049 219.679 95.3696C216.679 95.7926 214.092 96.5745 211.92 97.7153C211.529 97.9225 211.131 98.0387 210.729 98.064C209.923 98.1145 209.235 97.8576 208.665 97.2932C208.15 96.7906 207.872 96.2014 207.83 95.5256C207.705 93.5374 209.97 91.9993 214.624 90.9116C217.248 90.3035 220.327 89.8886 223.862 89.6669C224.641 89.618 225.307 89.8307 225.859 90.3049C226.423 90.7783 226.729 91.3854 226.775 92.1261C226.835 93.0748 226.491 93.8335 225.744 94.4022ZM247.624 79.4486C247.364 79.4649 247.089 79.4431 246.798 79.383C244.657 78.9433 242.592 78.7857 240.604 78.9104C239.629 78.9715 238.588 79.1151 237.48 79.3412C236.372 79.5672 235.198 79.8757 233.957 80.2666C234.065 81.995 234.168 84.5652 234.264 87.9773C234.989 87.8797 237.514 87.48 241.841 86.7781C244.308 86.3755 245.872 86.1535 246.535 86.1119C247.302 86.0638 247.974 86.2696 248.55 86.7292C249.126 87.1758 249.439 87.8019 249.49 88.6076C249.587 90.1541 248.817 91.083 247.179 91.3944C246.145 91.5376 244.6 91.7649 242.545 92.0765C240.713 92.4001 237.948 92.8279 234.25 93.3599C234.262 95.016 234.3 96.3509 234.364 97.3645C234.524 99.9116 234.764 101.351 235.085 101.683C235.238 101.843 236.062 101.876 237.557 101.783C238.363 101.732 239.576 101.636 241.198 101.496C242.82 101.355 244.034 101.259 244.84 101.209C245.1 101.192 245.481 101.129 245.983 101.019C246.485 100.91 246.859 100.847 247.106 100.832C247.86 100.784 248.516 100.958 249.076 101.354C249.717 101.796 250.065 102.453 250.119 103.324C250.211 104.779 249.505 105.697 248.003 106.079C246.718 106.407 244.03 106.7 239.936 106.956C235.7 107.222 232.902 106.824 231.544 105.761C230.049 104.589 229.169 101.904 228.906 97.7068C228.797 95.9654 228.756 93.3456 228.785 89.8474C228.825 86.3354 228.792 83.7152 228.683 81.9868C228.655 81.532 228.548 80.8668 228.362 79.9912C228.176 79.1027 228.069 78.431 228.04 77.9762C227.916 76.0009 228.764 74.9562 230.584 74.8421C231.155 74.8063 231.692 74.9357 232.193 75.2304C233.677 74.759 235.089 74.39 236.429 74.1233C237.781 73.8428 239.062 73.6646 240.27 73.5888C243.545 73.3835 246.187 73.5961 248.197 74.2268C249.421 74.6066 250.07 75.3943 250.145 76.5899C250.188 77.2657 249.991 77.8781 249.556 78.4273C249.074 79.0576 248.43 79.3981 247.624 79.4486ZM276.322 79.2732C275.308 79.3367 273.725 79.3643 271.571 79.3558C269.496 79.3424 267.913 79.3765 266.822 79.4579C266.967 80.9361 267.308 83.5632 267.845 87.3391C268.328 90.6747 268.631 93.3172 268.753 95.2665C268.781 95.7084 268.868 96.3618 269.013 97.2268C269.159 98.0917 269.245 98.7451 269.273 99.187C269.334 100.162 269.181 101.052 268.814 101.858C268.344 102.892 267.615 103.44 266.628 103.502C265.913 103.546 265.268 103.359 264.694 102.938C264.052 102.469 263.706 101.852 263.658 101.085C263.647 100.903 263.662 100.628 263.704 100.26C263.746 99.8794 263.76 99.5914 263.748 99.3965C263.71 98.7987 263.608 97.8984 263.442 96.6955C263.288 95.4919 263.192 94.5846 263.153 93.9739C263.044 92.2325 262.76 89.8824 262.3 86.9236C261.774 83.5254 261.444 81.1781 261.311 79.8819L260.297 79.9454C257.399 80.1272 255.086 80.0635 253.358 79.7544C251.893 79.494 251.118 78.6881 251.034 77.3365C250.992 76.6738 251.189 76.0613 251.623 75.4992C252.129 74.8282 252.826 74.4975 253.713 74.507C254.17 74.5045 255.21 74.5502 256.834 74.644C258.129 74.7063 259.173 74.7126 259.966 74.6629C260.759 74.6131 261.94 74.526 263.511 74.4014C265.095 74.276 266.283 74.1884 267.076 74.1387C268.064 74.0767 269.549 74.0553 271.534 74.0744C273.517 74.0804 275.003 74.0525 275.99 73.9906C276.77 73.9417 277.436 74.1543 277.987 74.6285C278.552 75.1019 278.857 75.709 278.904 76.4497C278.95 77.1905 278.723 77.8375 278.223 78.3907C277.735 78.9301 277.101 79.2243 276.322 79.2732ZM164.194 166.114C163.492 166.158 162.831 165.925 162.212 165.416C158.043 161.973 153.555 159.684 148.748 158.55C149.129 162.323 149.332 164.417 149.358 164.833C149.404 165.574 149.184 166.22 148.697 166.773C148.209 167.312 147.575 167.606 146.795 167.655C146.015 167.704 145.35 167.492 144.798 167.017C144.246 166.53 143.946 165.916 143.9 165.175C143.839 164.201 143.76 162.744 143.665 160.807C143.569 158.856 143.49 157.393 143.429 156.418L142.481 140.685C142.428 139.84 142.634 139.058 143.097 138.337C143.705 137.412 144.596 136.958 145.771 136.976C148.944 137.011 150.569 137.033 150.648 137.042C152.481 137.148 154.055 137.487 155.369 138.057C161.094 140.503 164.085 143.792 164.344 147.924C164.451 149.627 163.961 151.171 162.874 152.557C161.799 153.929 160.126 155.136 157.856 156.179C161.42 157.886 164.136 159.686 166.003 161.578C166.49 162.069 166.754 162.633 166.794 163.27C166.84 163.998 166.606 164.645 166.094 165.212C165.581 165.766 164.947 166.067 164.194 166.114ZM150.161 142.376C150.056 142.369 149.292 142.365 147.87 142.363L148.519 152.713C148.845 152.706 149.131 152.695 149.378 152.679C152.562 152.479 154.896 151.935 156.38 151.046C157.021 150.667 157.597 150.181 158.108 149.588C158.632 148.994 158.885 148.554 158.867 148.268C158.776 146.812 157.765 145.467 155.835 144.231C154.001 143.068 152.109 142.449 150.161 142.376ZM187.855 139.307C187.595 139.323 187.32 139.301 187.029 139.241C184.888 138.802 182.823 138.644 180.835 138.769C179.86 138.83 178.819 138.974 177.711 139.2C176.603 139.426 175.429 139.734 174.188 140.125C174.296 141.853 174.399 144.424 174.495 147.836C175.22 147.738 177.745 147.338 182.072 146.636C184.539 146.234 186.103 146.012 186.766 145.97C187.533 145.922 188.204 146.128 188.781 146.588C189.357 147.034 189.67 147.66 189.721 148.466C189.818 150.012 189.048 150.941 187.41 151.253C186.376 151.396 184.831 151.623 182.776 151.935C180.944 152.259 178.179 152.686 174.481 153.218C174.493 154.874 174.531 156.209 174.595 157.223C174.755 159.77 174.995 161.21 175.316 161.542C175.469 161.702 176.293 161.735 177.788 161.641C178.594 161.591 179.807 161.495 181.429 161.354C183.051 161.213 184.265 161.117 185.071 161.067C185.331 161.051 185.712 160.988 186.214 160.878C186.716 160.768 187.09 160.705 187.337 160.69C188.091 160.643 188.747 160.817 189.307 161.212C189.948 161.655 190.296 162.311 190.35 163.182C190.442 164.638 189.736 165.556 188.234 165.937C186.949 166.266 184.261 166.558 180.167 166.815C175.931 167.081 173.133 166.682 171.775 165.619C170.28 164.447 169.4 161.763 169.137 157.565C169.028 155.824 168.987 153.204 169.016 149.706C169.056 146.194 169.023 143.574 168.914 141.845C168.886 141.39 168.779 140.725 168.593 139.85C168.407 138.961 168.3 138.289 168.271 137.835C168.147 135.859 168.995 134.815 170.815 134.701C171.386 134.665 171.923 134.794 172.424 135.089C173.908 134.617 175.32 134.248 176.66 133.982C178.012 133.701 179.293 133.523 180.501 133.447C183.776 133.242 186.418 133.455 188.428 134.085C189.652 134.465 190.301 135.253 190.376 136.448C190.419 137.124 190.222 137.737 189.787 138.286C189.305 138.916 188.661 139.257 187.855 139.307ZM231.187 136.57C230.999 137.117 230.78 137.789 230.53 138.588C230.357 139.355 230.069 140.495 229.669 142.008C229.048 143.964 228.046 146.819 226.664 150.572C225.246 154.392 224.238 157.241 223.638 159.118C223.191 160.516 222.759 161.639 222.342 162.487C221.799 163.604 220.904 164.201 219.656 164.28C218.915 164.326 218.234 164.167 217.611 163.801C216.879 163.377 216.464 162.784 216.364 162.02C215.672 160.563 215.219 159.365 215.003 158.427C214.257 155.681 213.202 151.553 211.839 146.042C211.158 148.707 210.396 151.109 209.551 153.25C208.292 156.46 207.49 158.969 207.147 160.778C207.282 161.057 207.359 161.359 207.38 161.684C207.43 162.489 207.114 163.168 206.431 163.72C205.834 164.188 205.159 164.445 204.405 164.492C203.457 164.552 202.655 164.361 202.001 163.919C201.292 163.429 200.896 162.723 200.812 161.802L200.065 159.559C199.509 157.559 198.617 154.575 197.39 150.607C196.339 147.581 194.628 143.285 192.256 137.72C192.119 137.402 192.04 137.081 192.02 136.756C191.971 135.976 192.231 135.34 192.8 134.848C193.307 134.399 193.937 134.151 194.691 134.103C195.679 134.041 196.491 134.408 197.128 135.203C197.481 135.637 197.904 136.439 198.394 137.609C199.898 141.194 201.669 146.445 203.707 153.362C204.588 150.763 205.46 147.707 206.322 144.196C207.017 141.334 207.6 139.295 208.072 138.078C209.194 135.164 210.43 133.664 211.782 133.579C213.055 133.5 214.028 134.137 214.7 135.49C215.027 136.135 215.382 137.32 215.764 139.044C215.876 139.572 216.127 140.867 216.517 142.93C216.93 145.148 218.004 149.165 219.738 154.979C220.914 151.67 222.474 146.908 224.42 140.693C224.54 140.32 224.803 139.103 225.208 137.043C225.494 135.564 225.896 134.384 226.415 133.503C226.982 132.554 227.785 132.047 228.825 131.982C229.617 131.933 230.289 132.138 230.84 132.599C231.39 133.048 231.689 133.655 231.737 134.422C231.754 134.695 231.571 135.411 231.187 136.57ZM258.678 160.541C257.649 160.566 256.54 159.422 255.352 157.109C254.567 155.619 253.865 153.889 253.245 151.919C252.293 152.122 250.729 152.363 248.555 152.643C246.511 152.915 244.949 153.183 243.869 153.446C243.361 154.913 242.456 157.129 241.155 160.094C240.642 161.065 239.879 161.583 238.865 161.646C238.15 161.691 237.492 161.491 236.89 161.046C236.287 160.588 235.962 159.982 235.915 159.229C235.873 158.566 236.681 156.258 238.338 152.306C238.131 151.914 238.029 151.542 238.033 151.19C238.046 150.563 238.646 150.036 239.832 149.609C241.477 146.296 243.322 142.854 245.369 139.281C248.308 134.152 250.155 131.564 250.909 131.517C252.339 131.427 253.348 132.232 253.937 133.93C254.284 135.304 254.824 137.364 255.558 140.11C256.585 143.803 257.822 148.024 259.268 152.774C259.381 153.132 259.767 153.969 260.423 155.284C260.961 156.373 261.248 157.196 261.283 157.755C261.33 158.509 261.083 159.157 260.543 159.7C260.016 160.242 259.395 160.522 258.678 160.541ZM250.153 140.997C249.249 142.802 248.001 145.261 246.408 148.375C246.985 148.208 247.888 148.047 249.118 147.892C250.568 147.709 251.479 147.58 251.853 147.505C251.435 145.835 250.869 143.666 250.153 140.997ZM285.44 158.51C284.738 158.554 284.078 158.322 283.459 157.812C279.29 154.369 274.802 152.08 269.995 150.946C270.375 154.719 270.578 156.813 270.604 157.229C270.65 157.97 270.43 158.617 269.943 159.169C269.455 159.708 268.821 160.003 268.041 160.051C267.261 160.1 266.596 159.888 266.044 159.413C265.492 158.926 265.192 158.312 265.146 157.572C265.085 156.597 265.006 155.141 264.911 153.203C264.815 151.252 264.736 149.789 264.675 148.814L263.727 133.081C263.674 132.236 263.88 131.454 264.343 130.733C264.951 129.808 265.842 129.354 267.017 129.372C270.19 129.408 271.815 129.43 271.894 129.438C273.727 129.545 275.301 129.883 276.615 130.453C282.34 132.899 285.331 136.188 285.591 140.321C285.697 142.023 285.207 143.567 284.12 144.953C283.045 146.325 281.372 147.532 279.102 148.575C282.667 150.282 285.382 152.082 287.249 153.974C287.737 154.465 288 155.029 288.04 155.666C288.086 156.394 287.852 157.041 287.34 157.608C286.827 158.162 286.193 158.463 285.44 158.51ZM271.407 134.772C271.302 134.765 270.539 134.761 269.116 134.759L269.766 145.109C270.091 145.102 270.378 145.091 270.624 145.075C273.808 144.876 276.142 144.331 277.626 143.442C278.267 143.063 278.844 142.577 279.354 141.984C279.878 141.39 280.131 140.95 280.113 140.664C280.022 139.209 279.011 137.863 277.081 136.627C275.247 135.464 273.355 134.845 271.407 134.772ZM294.56 157.899C293.792 157.934 293.133 157.715 292.581 157.24C292.029 156.753 291.73 156.146 291.684 155.418C291.603 154.118 291.539 152.165 291.493 149.559C291.46 146.952 291.403 144.998 291.321 143.699C291.231 142.256 291.062 140.095 290.817 137.214C290.584 134.332 290.422 132.17 290.331 130.728C290.287 130.013 290.587 129.283 291.231 128.538C291.875 127.78 292.587 127.377 293.367 127.328C293.796 127.301 294.9 127.636 296.678 128.333C298.753 129.169 299.982 129.633 300.367 129.726C304.252 130.722 307.62 132.429 310.472 134.846C313.875 137.725 315.694 141.029 315.928 144.758C316.069 147.007 315.651 149.179 314.673 151.276C313.698 153.411 312.288 155.163 310.443 156.531C308.374 158.07 305.383 158.962 301.472 159.207C300.523 159.267 299.423 159.199 298.171 159.003C296.656 158.759 295.452 158.391 294.56 157.899ZM304.258 137.173C302.948 136.46 300.167 135.382 295.914 133.939L297.125 153.237C297.652 153.53 298.246 153.741 298.906 153.869C299.579 153.983 300.318 154.015 301.123 153.965C303.93 153.789 305.92 153.273 307.093 152.416C308.203 151.603 309.056 150.538 309.652 149.223C310.261 147.906 310.522 146.559 310.436 145.181C310.234 141.958 308.174 139.289 304.258 137.173ZM329.066 156.733C325.766 156.94 323.12 156.369 321.131 155.019C319.456 153.898 318.568 152.538 318.468 150.94C318.417 150.121 318.621 149.43 319.082 148.866C319.541 148.289 320.206 147.974 321.077 147.919C322.247 147.846 323.142 148.39 323.763 149.551C324.604 151.103 326.33 151.797 328.942 151.633C331.177 151.493 333.311 150.87 335.342 149.764C337.449 148.627 338.465 147.461 338.39 146.266C338.288 144.628 337.544 143.592 336.16 143.157C335.175 142.84 333.231 142.74 330.329 142.857C328.078 142.946 326.037 142.65 324.207 141.969C321.735 141.041 320.456 139.569 320.368 137.552C320.248 135.016 321.454 132.611 323.986 130.339C326.518 128.054 329.388 126.81 332.598 126.609C333.871 126.529 335.462 126.723 337.37 127.191C339.742 127.772 340.958 128.538 341.017 129.486C341.06 130.162 340.863 130.775 340.428 131.324C339.945 131.941 339.294 132.275 338.475 132.327C337.864 132.365 336.94 132.293 335.702 132.109C334.477 131.925 333.553 131.853 332.929 131.892C331.254 132.01 329.687 132.513 328.229 133.4C326.72 134.303 325.996 135.229 326.055 136.178C326.086 136.672 326.346 137.067 326.834 137.362C327.334 137.644 328.063 137.82 329.02 137.89C330.689 137.877 332.351 137.864 334.008 137.852C336.906 137.892 339.238 138.561 341.002 139.859C342.945 141.303 344.003 143.402 344.176 146.157C344.386 149.51 342.636 152.17 338.923 154.138C336.095 155.633 332.809 156.498 329.066 156.733Z" fill="black"/>
</svg>
