<svg width="407" height="202" viewBox="0 0 407 202" fill="none" xmlns="http://www.w3.org/2000/svg">
<rect x="49.45" y="71.7502" width="347.017" height="130.131" rx="65.0657" transform="rotate(-5.12119 49.45 71.7502)" fill="#FFADED"/>
<path d="M60.7994 127.875C53.0269 133.189 45.7175 135.82 39.1964 136.442C7.52367 139.466 -5.55197 95.1124 37.2409 80.6426L60.7994 127.875Z" fill="#FF0000"/>
<path d="M88.7429 16.3737C76.1853 40.1354 57.9716 63.5386 37.2409 80.6426L60.7994 127.875C78.675 119.492 118.343 113.566 139.399 117.97L88.7429 16.3737Z" fill="white"/>
<path d="M102.816 7.4428C98.54 2.26014 85.6578 4.51312 88.7429 16.3737L139.399 117.97C143.675 123.153 155.914 123.775 154.683 111.725L134.643 71.4344L122.322 46.6602L102.816 7.4428Z" fill="#FF0000"/>
<path d="M86.9292 163.606C85.0644 161.749 81.4581 158.049 79.5882 155.927C74.3607 149.992 70.9366 144.821 66.4044 137.605C64.3994 134.413 62.5154 131.153 60.7994 127.875C53.0269 133.189 45.7175 135.82 39.1964 136.442C43.5242 148.241 56.8562 173.61 71.8547 181.069C82.7912 186.507 93.7221 175.088 86.9292 163.606Z" fill="white"/>
<path d="M66.4044 137.605C70.9366 144.821 74.3607 149.992 79.5882 155.927C92.1863 150.893 74.7034 126.454 66.4044 137.605Z" fill="#FF0000"/>
<path d="M122.322 46.6602L134.643 71.4344C139.656 65.4942 138.34 57.1992 136.666 54.5605C134.433 51.0422 129.23 45.9543 122.322 46.6602Z" fill="white"/>
<path d="M102.816 7.4428L103.264 7.22014L103.238 7.16881L103.202 7.12459L102.816 7.4428ZM154.683 111.725L155.18 111.675L155.171 111.584L155.131 111.503L154.683 111.725ZM86.9292 163.606L87.3595 163.351L87.3271 163.297L87.282 163.252L86.9292 163.606ZM71.8547 181.069L71.6321 181.516L71.8547 181.069ZM37.5591 81.0283C58.3467 63.8773 76.6004 40.4202 89.1849 16.6074L88.3008 16.1401C75.7703 39.8507 57.5965 63.1998 36.9227 80.2569L37.5591 81.0283ZM89.2268 16.2479C88.478 13.3692 88.7109 11.128 89.4919 9.45753C90.2728 7.78725 91.6252 6.6367 93.2107 5.97887C96.4226 4.64622 100.461 5.3745 102.43 7.76101L103.202 7.12459C100.895 4.32844 96.3543 3.59188 92.8274 5.05521C91.0435 5.79537 89.4865 7.10801 88.586 9.03401C87.6857 10.9598 87.4652 13.448 88.259 16.4996L89.2268 16.2479ZM154.185 111.776C154.485 114.708 153.959 116.803 153 118.235C152.043 119.664 150.619 120.491 149.006 120.82C145.742 121.487 141.802 120.097 139.784 117.652L139.013 118.288C141.272 121.026 145.589 122.539 149.206 121.8C151.034 121.427 152.705 120.473 153.831 118.792C154.954 117.114 155.496 114.768 155.18 111.675L154.185 111.776ZM139.846 117.747L89.1903 16.1506L88.2954 16.5968L138.951 118.193L139.846 117.747ZM139.501 117.481C128.891 115.261 113.645 115.65 98.8403 117.632C84.0341 119.614 69.591 123.2 60.5871 127.423L61.0117 128.328C69.8833 124.168 84.2122 120.599 98.973 118.623C113.735 116.647 128.851 116.274 139.296 118.46L139.501 117.481ZM36.7935 80.8658L60.352 128.098L61.2468 127.652L37.6883 80.4194L36.7935 80.8658ZM86.4989 163.86C89.7871 169.418 88.7693 174.904 85.6689 178.348C82.5646 181.796 77.3395 183.238 72.0774 180.621L71.6321 181.516C77.3065 184.338 83.015 182.79 86.412 179.017C89.8129 175.24 90.8642 169.275 87.3595 163.351L86.4989 163.86ZM60.5172 127.463C52.8014 132.737 45.5714 135.331 39.1489 135.944L39.2439 136.94C45.8637 136.308 53.2524 133.64 61.0816 128.288L60.5172 127.463ZM39.1489 135.944C23.5819 137.431 12.6287 127.289 10.7885 115.028C8.95329 102.8 16.1808 88.2916 37.401 81.1163L37.0807 80.169C15.5081 87.4634 7.87702 102.367 9.79959 115.177C11.7172 127.954 23.1382 138.477 39.2439 136.94L39.1489 135.944ZM72.0774 180.621C64.7021 176.953 57.6799 168.841 51.9419 160.108C46.2141 151.391 41.8165 142.133 39.6658 136.27L38.727 136.614C40.9041 142.55 45.3364 151.876 51.1062 160.658C56.8657 169.423 64.0088 177.725 71.6321 181.516L72.0774 180.621ZM60.3564 128.107C62.079 131.397 63.9695 134.669 65.981 137.871L66.8279 137.339C64.8293 134.157 62.9519 130.908 61.2424 127.643L60.3564 128.107ZM65.981 137.871C70.5167 145.092 73.9581 150.292 79.2131 156.257L79.9634 155.596C74.7634 149.693 71.3565 144.549 66.8279 137.339L65.981 137.871ZM79.2131 156.257C81.0942 158.393 84.7101 162.102 86.5764 163.96L87.282 163.252C85.4187 161.396 81.822 157.706 79.9634 155.596L79.2131 156.257ZM66.8055 137.904C67.7899 136.581 68.8874 135.815 70.0192 135.462C71.1532 135.108 72.363 135.157 73.5903 135.534C76.0604 136.293 78.5486 138.37 80.4264 140.988C82.3031 143.605 83.5129 146.683 83.5101 149.372C83.5087 150.71 83.2077 151.937 82.5562 152.97C81.9069 154 80.8901 154.868 79.4027 155.462L79.7738 156.391C81.4359 155.727 82.6286 154.73 83.4021 153.503C84.1734 152.28 84.5086 150.859 84.5101 149.373C84.5132 146.412 83.1957 143.134 81.239 140.405C79.2835 137.679 76.6323 135.422 73.884 134.578C72.5021 134.153 71.0829 134.083 69.7215 134.507C68.358 134.932 67.0937 135.842 66.0033 137.307L66.8055 137.904ZM102.368 7.66546L121.874 46.8829L122.769 46.4375L103.264 7.22014L102.368 7.66546ZM121.874 46.8829L134.196 71.6571L135.091 71.2117L122.769 46.4375L121.874 46.8829ZM134.196 71.6571L154.235 111.948L155.131 111.503L135.091 71.2117L134.196 71.6571ZM135.026 71.7569C137.622 68.6796 138.571 65.0024 138.662 61.7734C138.752 58.5625 137.994 55.7213 137.088 54.2926L136.243 54.8284C137.011 56.0383 137.749 58.664 137.662 61.7453C137.576 64.8086 136.677 68.249 134.261 71.112L135.026 71.7569ZM137.088 54.2926C134.816 50.713 129.461 45.4281 122.271 46.1628L122.372 47.1576C128.999 46.4805 134.05 51.3714 136.243 54.8284L137.088 54.2926Z" fill="black"/>
<path d="M217.534 91.0719C216.52 91.1355 214.937 91.1631 212.783 91.1546C210.708 91.1412 209.125 91.1753 208.034 91.2567C208.179 92.7349 208.52 95.362 209.057 99.1379C209.54 102.474 209.843 105.116 209.965 107.065C209.993 107.507 210.079 108.161 210.225 109.026C210.371 109.891 210.457 110.544 210.485 110.986C210.546 111.96 210.393 112.851 210.026 113.656C209.556 114.69 208.827 115.238 207.84 115.3C207.125 115.345 206.48 115.157 205.906 114.737C205.264 114.268 204.918 113.651 204.87 112.884C204.859 112.702 204.874 112.427 204.916 112.059C204.958 111.678 204.972 111.39 204.96 111.195C204.922 110.598 204.82 109.697 204.654 108.494C204.5 107.291 204.404 106.383 204.365 105.773C204.256 104.031 203.972 101.681 203.512 98.7224C202.986 95.3242 202.656 92.9769 202.523 91.6807L201.509 91.7442C198.611 91.926 196.298 91.8623 194.57 91.5532C193.105 91.2928 192.33 90.4868 192.246 89.1353C192.204 88.4726 192.401 87.8601 192.835 87.298C193.341 86.627 194.038 86.2963 194.925 86.3058C195.382 86.3033 196.422 86.3489 198.046 86.4428C199.341 86.5051 200.385 86.5114 201.178 86.4616C201.971 86.4119 203.152 86.3248 204.723 86.2002C206.307 86.0747 207.495 85.9872 208.288 85.9375C209.276 85.8755 210.761 85.8541 212.746 85.8732C214.729 85.8792 216.215 85.8513 217.202 85.7894C217.982 85.7405 218.648 85.9531 219.199 86.4273C219.764 86.9007 220.069 87.5078 220.116 88.2485C220.162 88.9893 219.935 89.6362 219.435 90.1895C218.947 90.7289 218.313 91.023 217.534 91.0719ZM241.584 87.9394C241.324 87.9557 241.049 87.9338 240.758 87.8738C238.617 87.434 236.552 87.2765 234.564 87.4012C233.589 87.4623 232.548 87.6059 231.44 87.8319C230.332 88.0579 229.158 88.3664 227.917 88.7573C228.025 90.4857 228.128 93.056 228.224 96.4681C228.949 96.3704 231.474 95.9707 235.801 95.2688C238.268 94.8663 239.832 94.6442 240.495 94.6026C241.262 94.5545 241.933 94.7603 242.51 95.2199C243.086 95.6665 243.399 96.2926 243.45 97.0983C243.547 98.6448 242.777 99.5737 241.139 99.8852C240.105 100.028 238.56 100.256 236.505 100.567C234.673 100.891 231.908 101.319 228.21 101.851C228.222 103.507 228.26 104.842 228.324 105.855C228.484 108.402 228.724 109.842 229.045 110.174C229.198 110.334 230.022 110.367 231.517 110.273C232.323 110.223 233.536 110.127 235.158 109.986C236.78 109.845 237.994 109.75 238.8 109.699C239.06 109.683 239.441 109.62 239.943 109.51C240.445 109.4 240.819 109.338 241.066 109.322C241.82 109.275 242.476 109.449 243.036 109.845C243.677 110.287 244.025 110.944 244.079 111.814C244.171 113.27 243.465 114.188 241.962 114.569C240.678 114.898 237.99 115.19 233.896 115.447C229.66 115.713 226.862 115.314 225.504 114.251C224.008 113.08 223.129 110.395 222.866 106.198C222.757 104.456 222.716 101.836 222.745 98.3381C222.785 94.8261 222.752 92.2059 222.643 90.4775C222.615 90.0227 222.508 89.3575 222.322 88.482C222.136 87.5935 222.029 86.9218 222 86.4669C221.876 84.4917 222.724 83.447 224.543 83.3329C225.115 83.297 225.652 83.4264 226.153 83.7212C227.637 83.2498 229.049 82.8807 230.389 82.614C231.741 82.3335 233.022 82.1554 234.23 82.0796C237.505 81.8742 240.147 82.0868 242.157 82.7175C243.381 83.0974 244.03 83.8851 244.105 85.0806C244.148 85.7564 243.951 86.3688 243.516 86.918C243.034 87.5484 242.39 87.8888 241.584 87.9394ZM272.055 85.774C270.463 87.8439 269.24 89.5644 268.387 90.9356C267.489 92.44 266.036 94.6382 264.025 97.5301C265.509 99.3419 266.993 101.16 268.477 102.985C270.228 105.106 271.792 106.854 273.17 108.229C273.685 108.744 273.962 109.314 274.001 109.938C274.047 110.666 273.807 111.313 273.281 111.881C272.769 112.448 272.136 112.755 271.382 112.803C270.096 112.883 268.32 111.507 266.055 108.675C265.442 107.852 264.498 106.633 263.223 105.017C262.63 104.297 261.734 103.225 260.536 101.8C259.05 103.706 257.162 106.056 254.872 108.848C254.148 109.78 253.026 111.142 251.508 112.934C250.97 113.515 250.331 113.829 249.59 113.876C248.836 113.923 248.164 113.698 247.571 113.2C246.98 112.715 246.661 112.109 246.616 111.381C246.577 110.758 246.768 110.171 247.19 109.623C247.931 108.742 249.035 107.414 250.502 105.639C252.102 103.686 254.237 101.008 256.906 97.6047C255.49 96.0236 254.001 94.447 252.441 92.8749C252.316 92.7523 251.516 91.8501 250.041 90.1683C249.072 89.068 248.192 88.249 247.401 87.7115C246.623 87.1602 246.209 86.4817 246.158 85.676C246.115 84.9872 246.336 84.3536 246.822 83.7752C247.32 83.183 247.965 82.8621 248.758 82.8123C249.459 82.7683 250.413 83.2043 251.618 84.1202C252.496 84.7958 253.231 85.4868 253.823 86.1933C254.414 86.8868 255.293 87.8885 256.458 89.1984C257.794 90.5366 259.086 91.8972 260.334 93.2802C261.836 91.0203 263.332 88.7608 264.821 86.5017C267.146 83.2247 268.77 81.5573 269.693 81.4994C270.447 81.4521 271.12 81.6774 271.712 82.1751C272.303 82.6599 272.622 83.2661 272.667 83.9939C272.706 84.6047 272.502 85.198 272.055 85.774ZM299.17 85.9522C298.156 86.0157 296.573 86.0433 294.42 86.0348C292.345 86.0214 290.762 86.0555 289.671 86.1369C289.816 87.6151 290.157 90.2422 290.694 94.0181C291.177 97.3537 291.479 99.9962 291.602 101.946C291.629 102.387 291.716 103.041 291.862 103.906C292.007 104.771 292.094 105.424 292.121 105.866C292.183 106.841 292.03 107.731 291.663 108.537C291.193 109.571 290.464 110.119 289.476 110.181C288.761 110.225 288.117 110.038 287.543 109.617C286.9 109.148 286.555 108.531 286.507 107.764C286.495 107.582 286.511 107.307 286.553 106.939C286.594 106.558 286.609 106.27 286.596 106.076C286.559 105.478 286.457 104.577 286.29 103.375C286.136 102.171 286.04 101.264 286.002 100.653C285.893 98.9115 285.608 96.5614 285.149 93.6026C284.623 90.2044 284.293 87.8571 284.159 86.5609L283.146 86.6244C280.248 86.8062 277.934 86.7425 276.206 86.4334C274.742 86.173 273.967 85.3671 273.882 84.0156C273.841 83.3528 274.037 82.7403 274.471 82.1782C274.977 81.5072 275.674 81.1765 276.562 81.186C277.018 81.1835 278.058 81.2292 279.682 81.323C280.978 81.3853 282.022 81.3916 282.814 81.3419C283.607 81.2921 284.789 81.205 286.36 81.0804C287.943 80.955 289.132 80.8674 289.924 80.8177C290.912 80.7557 292.398 80.7343 294.382 80.7534C296.366 80.7594 297.851 80.7315 298.839 80.6696C299.619 80.6207 300.284 80.8333 300.836 81.3076C301.4 81.781 301.706 82.388 301.752 83.1288C301.799 83.8695 301.572 84.5165 301.072 85.0697C300.584 85.6091 299.95 85.9033 299.17 85.9522ZM194.391 172.332C193.689 172.376 193.029 172.144 192.41 171.634C188.241 168.191 183.753 165.902 178.946 164.768C179.326 168.541 179.529 170.635 179.555 171.051C179.601 171.792 179.381 172.439 178.894 172.991C178.406 173.53 177.772 173.825 176.992 173.873C176.213 173.922 175.547 173.71 174.995 173.235C174.443 172.748 174.143 172.134 174.097 171.394C174.036 170.419 173.958 168.963 173.862 167.025C173.766 165.074 173.687 163.611 173.626 162.636L172.679 146.903C172.626 146.058 172.831 145.276 173.294 144.555C173.902 143.63 174.793 143.176 175.968 143.194C179.141 143.23 180.767 143.252 180.845 143.26C182.679 143.367 184.252 143.705 185.567 144.275C191.291 146.721 194.283 150.01 194.542 154.143C194.648 155.845 194.158 157.389 193.071 158.775C191.996 160.147 190.323 161.354 188.053 162.397C191.618 164.104 194.333 165.904 196.2 167.796C196.688 168.287 196.951 168.851 196.991 169.488C197.037 170.216 196.804 170.863 196.291 171.43C195.778 171.984 195.145 172.285 194.391 172.332ZM180.358 148.594C180.253 148.587 179.49 148.583 178.068 148.581L178.717 158.931C179.042 158.924 179.329 158.913 179.576 158.897C182.759 158.698 185.093 158.153 186.577 157.264C187.219 156.885 187.795 156.399 188.305 155.806C188.829 155.212 189.082 154.772 189.064 154.486C188.973 153.031 187.962 151.685 186.032 150.449C184.198 149.286 182.307 148.667 180.358 148.594ZM218.052 145.525C217.792 145.541 217.517 145.52 217.226 145.46C215.085 145.02 213.02 144.862 211.032 144.987C210.058 145.048 209.016 145.192 207.909 145.418C206.801 145.644 205.626 145.952 204.385 146.343C204.494 148.072 204.596 150.642 204.693 154.054C205.417 153.956 207.943 153.556 212.269 152.855C214.736 152.452 216.301 152.23 216.963 152.188C217.73 152.14 218.402 152.346 218.979 152.806C219.555 153.252 219.868 153.878 219.918 154.684C220.015 156.231 219.245 157.16 217.608 157.471C216.573 157.614 215.028 157.841 212.973 158.153C211.141 158.477 208.376 158.904 204.678 159.436C204.691 161.093 204.729 162.427 204.792 163.441C204.952 165.988 205.192 167.428 205.513 167.76C205.667 167.92 206.491 167.953 207.985 167.859C208.791 167.809 210.005 167.713 211.627 167.572C213.249 167.431 214.463 167.336 215.268 167.285C215.528 167.269 215.909 167.206 216.411 167.096C216.913 166.986 217.287 166.924 217.534 166.908C218.288 166.861 218.945 167.035 219.504 167.43C220.145 167.873 220.493 168.529 220.548 169.4C220.639 170.856 219.933 171.774 218.431 172.155C217.147 172.484 214.458 172.776 210.364 173.033C206.128 173.299 203.331 172.9 201.972 171.837C200.477 170.665 199.597 167.981 199.334 163.783C199.225 162.042 199.185 159.422 199.213 155.924C199.254 152.412 199.22 149.792 199.112 148.063C199.083 147.608 198.976 146.943 198.791 146.068C198.605 145.179 198.497 144.508 198.469 144.053C198.345 142.077 199.192 141.033 201.012 140.919C201.584 140.883 202.12 141.012 202.621 141.307C204.105 140.836 205.517 140.467 206.857 140.2C208.209 139.919 209.49 139.741 210.698 139.665C213.973 139.46 216.615 139.673 218.625 140.303C219.849 140.683 220.499 141.471 220.574 142.666C220.616 143.342 220.42 143.955 219.984 144.504C219.502 145.134 218.858 145.475 218.052 145.525ZM247.356 169.363C246.327 169.388 245.218 168.244 244.029 165.931C243.244 164.441 242.542 162.711 241.923 160.741C240.97 160.944 239.406 161.185 237.232 161.465C235.188 161.737 233.626 162.005 232.547 162.268C232.039 163.735 231.134 165.951 229.832 168.916C229.319 169.887 228.556 170.405 227.542 170.468C226.828 170.513 226.169 170.313 225.567 169.868C224.965 169.41 224.64 168.804 224.592 168.051C224.551 167.388 225.358 165.08 227.015 161.128C226.808 160.736 226.706 160.364 226.71 160.012C226.723 159.385 227.323 158.858 228.51 158.431C230.154 155.119 232 151.676 234.046 148.103C236.986 142.974 238.833 140.386 239.586 140.339C241.016 140.249 242.025 141.054 242.614 142.752C242.962 144.126 243.502 146.186 244.235 148.932C245.262 152.625 246.499 156.846 247.945 161.596C248.059 161.954 248.444 162.791 249.1 164.107C249.638 165.195 249.925 166.018 249.96 166.577C250.007 167.331 249.761 167.979 249.221 168.522C248.694 169.064 248.072 169.344 247.356 169.363ZM238.831 149.819C237.926 151.624 236.678 154.083 235.086 157.197C235.662 157.03 236.566 156.869 237.795 156.714C239.245 156.531 240.157 156.403 240.53 156.327C240.112 154.657 239.546 152.488 238.831 149.819ZM257.663 168.325C256.895 168.36 256.235 168.141 255.684 167.666C255.131 167.179 254.832 166.572 254.787 165.844C254.705 164.544 254.641 162.591 254.595 159.985C254.562 157.378 254.505 155.424 254.424 154.125C254.333 152.682 254.165 150.521 253.919 147.64C253.686 144.758 253.524 142.596 253.434 141.154C253.389 140.439 253.689 139.709 254.334 138.964C254.978 138.206 255.69 137.803 256.469 137.754C256.898 137.727 258.002 138.062 259.781 138.759C261.856 139.595 263.085 140.059 263.469 140.152C267.354 141.148 270.723 142.855 273.575 145.272C276.978 148.151 278.796 151.455 279.03 155.184C279.171 157.433 278.753 159.605 277.776 161.702C276.801 163.837 275.391 165.589 273.546 166.957C271.476 168.496 268.486 169.388 264.574 169.633C263.626 169.693 262.526 169.625 261.274 169.429C259.758 169.185 258.554 168.817 257.663 168.325ZM267.361 147.599C266.051 146.886 263.269 145.807 259.017 144.365L260.227 163.663C260.755 163.956 261.348 164.167 262.009 164.295C262.681 164.409 263.42 164.441 264.226 164.391C267.033 164.215 269.023 163.699 270.196 162.842C271.306 162.029 272.159 160.964 272.755 159.648C273.363 158.332 273.625 156.985 273.538 155.607C273.336 152.384 271.277 149.715 267.361 147.599ZM301.014 140.322C300.754 140.339 300.479 140.317 300.188 140.257C298.047 139.817 295.983 139.659 293.994 139.784C293.02 139.845 291.978 139.989 290.871 140.215C289.763 140.441 288.588 140.749 287.347 141.14C287.456 142.869 287.558 145.439 287.655 148.851C288.379 148.753 290.905 148.354 295.231 147.652C297.698 147.249 299.263 147.027 299.925 146.986C300.692 146.937 301.364 147.143 301.941 147.603C302.517 148.049 302.83 148.676 302.88 149.481C302.977 151.028 302.207 151.957 300.57 152.268C299.535 152.411 297.99 152.639 295.935 152.95C294.103 153.274 291.338 153.702 287.64 154.234C287.653 155.89 287.691 157.224 287.754 158.238C287.914 160.785 288.154 162.225 288.475 162.557C288.629 162.717 289.453 162.75 290.947 162.656C291.753 162.606 292.967 162.51 294.589 162.369C296.211 162.228 297.425 162.133 298.23 162.082C298.49 162.066 298.871 162.003 299.373 161.893C299.875 161.783 300.249 161.721 300.496 161.705C301.25 161.658 301.907 161.832 302.466 162.227C303.107 162.67 303.455 163.327 303.51 164.197C303.601 165.653 302.895 166.571 301.393 166.952C300.109 167.281 297.42 167.573 293.326 167.83C289.09 168.096 286.293 167.697 284.934 166.634C283.439 165.463 282.559 162.778 282.296 158.58C282.187 156.839 282.147 154.219 282.175 150.721C282.216 147.209 282.182 144.589 282.074 142.86C282.045 142.406 281.938 141.74 281.753 140.865C281.567 139.976 281.459 139.305 281.431 138.85C281.307 136.875 282.155 135.83 283.974 135.716C284.546 135.68 285.082 135.809 285.583 136.104C287.067 135.633 288.479 135.264 289.819 134.997C291.172 134.716 292.452 134.538 293.66 134.462C296.935 134.257 299.577 134.47 301.587 135.1C302.811 135.48 303.461 136.268 303.536 137.464C303.578 138.139 303.382 138.752 302.946 139.301C302.464 139.931 301.82 140.272 301.014 140.322ZM327.879 163.961C327.177 164.005 326.516 163.772 325.897 163.263C321.728 159.819 317.24 157.53 312.433 156.397C312.814 160.17 313.017 162.264 313.043 162.68C313.089 163.42 312.869 164.067 312.382 164.619C311.894 165.159 311.26 165.453 310.48 165.502C309.7 165.551 309.035 165.338 308.483 164.864C307.931 164.377 307.631 163.763 307.585 163.022C307.524 162.047 307.445 160.591 307.35 158.653C307.254 156.702 307.175 155.239 307.114 154.265L306.166 138.531C306.113 137.687 306.319 136.904 306.782 136.184C307.39 135.258 308.281 134.805 309.456 134.822C312.629 134.858 314.254 134.88 314.333 134.888C316.166 134.995 317.74 135.333 319.054 135.903C324.779 138.349 327.77 141.638 328.029 145.771C328.136 147.473 327.646 149.017 326.559 150.403C325.484 151.775 323.811 152.983 321.541 154.025C325.106 155.733 327.821 157.532 329.688 159.424C330.175 159.916 330.439 160.48 330.479 161.116C330.525 161.844 330.291 162.492 329.779 163.059C329.266 163.613 328.632 163.913 327.879 163.961ZM313.846 140.222C313.741 140.216 312.977 140.211 311.555 140.209L312.204 150.56C312.53 150.553 312.816 150.541 313.063 150.526C316.247 150.326 318.581 149.782 320.065 148.893C320.706 148.513 321.282 148.027 321.793 147.434C322.317 146.84 322.57 146.4 322.552 146.114C322.461 144.659 321.45 143.313 319.52 142.078C317.686 140.914 315.794 140.296 313.846 140.222Z" fill="black"/>
</svg>
